<?xml version="1.0" encoding="UTF-8" standalone="no"?>
<!DOCTYPE svg PUBLIC "-//W3C//DTD SVG 1.1//EN"
"http://www.w3.org/Graphics/SVG/1.1/DTD/svg11.dtd">
<svg viewBox="0 0 1299 3898" version="1.1" xmlns="http://www.w3.org/2000/svg" xmlns:xlink="http://www.w3.org/1999/xlink">
<defs>
<clipPath id="c0"><path d="M0,3911.9V0H1300.1V3911.9Z"/></clipPath>
<clipPath id="c1"><path d="M0,3900.4V0H1300.1V3900.4Z"/></clipPath>
<clipPath id="c2"><path d="M915.7,602.3V346.7h384V602.3Z"/></clipPath>
<clipPath id="c3"><path d="M528.9,602.3V346.7H915.3V602.3Z"/></clipPath>
<clipPath id="c4"><path d="M0,602.3V346.7H528.5V602.3Z"/></clipPath>
<clipPath id="c5"><path d="M0,237.9V0H412.3V237.9Z"/></clipPath>
<clipPath id="c6"><path d="M638.3,1813v-84.8h56.2V1813Z"/></clipPath>
<clipPath id="c7"><path d="M256.9,1813v-76.9h67.7V1813Z"/></clipPath>
<clipPath id="c8"><path d="M989.7,1813v-76.9h76.8V1813Z"/></clipPath>
<clipPath id="c9"><path d="M219.5,2054v-78H323.8v78Z"/></clipPath>
<clipPath id="ca"><path d="M668.4,2053.8v-48.1h22.8v48.1Z"/></clipPath>
<clipPath id="cb"><path d="M0,2623.1V2223.5H1300.1v399.6Z"/></clipPath>
<clipPath id="cc"><path d="M116.7,2584.7V2509H217.6v75.7Z"/></clipPath>
<clipPath id="cd"><path d="M129.5,2489.8v-74.5h74.6v74.5Z"/></clipPath>
<clipPath id="ce"><path d="M133.2,2738.9v-39h47v39Z"/></clipPath>
<clipPath id="cf"><path d="M137.6,2854.8v-39h33.3v39Z"/></clipPath>
<clipPath id="cg"><path d="M137.9,2961.1v-33.2h37.8v33.2Z"/></clipPath>
<clipPath id="ch"><path d="M135.1,2794.5v-41.2h43.5v41.2Z"/></clipPath>
<clipPath id="ci"><path d="M0,3522.9v-495H1300.1v495Z"/></clipPath>
<clipPath id="cj"><path d="M323.5,3285.8v-51.6h39v51.6Z"/></clipPath>
<clipPath id="ck"><path d="M209.9,3795.9v-51.6h42.5v51.6Z"/></clipPath>
<clipPath id="cl"><path d="M241.5,3789.7v-35.9h20v35.9Z"/></clipPath>
<clipPath id="cm"><path d="M623.3,3813.5v-43.6h52.8v43.6Z"/></clipPath>
<clipPath id="cn"><path d="M1077.9,3779.4v-44.7h44.7v44.7Z"/></clipPath>
<clipPath id="co"><path d="M627,3708.5v-45.9h45.9v45.9Z"/></clipPath>
<clipPath id="cp"><path d="M0,1638.3V1238.6H1300.1v399.7Z"/></clipPath>
<clipPath id="cq"><path d="M0,990.4V756.8H1300.1V990.4Z"/></clipPath>
<clipPath id="cr"><path d="M860.5,1238.2V989.4h439.6v248.8Z"/></clipPath>
<clipPath id="cs"><path d="M341.2,1239.2V989.3H630.1v249.9Z"/></clipPath>
<clipPath id="ct"><path d="M1.3,1239.2V989.3H345.2v249.9Z"/></clipPath>
<clipPath id="cu"><path d="M630.5,1238V989.3H972.1V1238Z"/></clipPath>
<style type="text/css"><![CDATA[
.g0{
fill: #FFFFFF;
}
.g1{
fill: #009240;
}
.g2{
fill: #EF7D00;
fill-opacity: 0.098000005;
}
.g3{
fill: #E4032E;
}
.g4{
fill: #0094CD;
}
.g5{
fill: #EF7D00;
}
.g6{
fill: #818080;
}
.g7{
fill: #76B82A;
}
]]></style>
</defs>
<g clip-path="url(#c0)">
<path d="M0,0H1300.1V3911.9H0V0Z" class="g0"/>
<path d="M0,0H1300.1V3900.4H0V0Z" class="g0"/>
</g>
<path clip-path="url(#c1)" d="M0,0H1300.1V3900.4H0V0Z" class="g0"/>
<image clip-path="url(#c2)" preserveAspectRatio="none" x="916" y="347" width="384" height="255" xlink:href="img/1.jpg"/>
<image clip-path="url(#c3)" preserveAspectRatio="none" x="529" y="347" width="386" height="255" xlink:href="img/2.jpg"/>
<image clip-path="url(#c4)" preserveAspectRatio="none" x="0" y="347" width="529" height="255" xlink:href="img/3.jpg"/>
<image clip-path="url(#c5)" preserveAspectRatio="none" x="-41" y="-64" width="453" height="302" xlink:href="img/4.png"/>
<path clip-path="url(#c6)" d="M694,1754.2c-1,-4.9,-3.8,-9.2,-7.7,-12c-1,-.6,-2,-1.2,-3.1,-1.7c-.9,-.5,-1.9,-.8,-2.9,-1.1c-.9,-.3,-1.8,-.5,-2.8,-.6c-1.2,-.1,-2.4,-.2,-3.6,-.1c-9.5,.6,-17.3,8.3,-18.1,17.9c0,1,0,2.1,0,3.1c.3,3.5,1.5,6.8,3.4,9.5c.6,.9,1.3,1.7,2,2.5c.6,.5,1.1,1,1.7,1.5c.2,.2,.4,.3,.6,.5h.1c.3,.3,.7,.5,1.1,.8l.1,.1c0,0,.1,.1,.2,.1c1.3,.9,2.1,2.4,2.1,4v1.7c0,.2,0,.4,0,.6c.3,1.3,1.5,2.3,2.9,2.3h10.2c1.7,0,3,-1.3,3,-2.9v-1.7c0,-1.7,.9,-3.2,2.3,-4.2c1.3,-.8,2.5,-1.8,3.5,-2.8c2.6,-2.8,4.5,-6.3,5.2,-10.2c0,0,0,-.1,0,-.2c.2,-1,.3,-2.1,.3,-3.2c0,-1.3,-.2,-2.7,-.5,-3.9Zm-3.7,6.4v.3c-.5,3,-1.9,5.8,-4.1,8c-.8,.9,-1.8,1.7,-2.8,2.3c-2.6,1.7,-4.1,4.5,-4.1,7.5c0,.4,-.3,.7,-.7,.7h-2.4V1767h3.3c.1,0,.2,0,.4,0c2.1,0,3.8,-1.7,3.8,-3.9c0,-2.1,-1.7,-3.8,-3.8,-3.8c-2.1,0,-3.9,1.7,-3.9,3.8c0,.6,.1,1.1,.3,1.5h-2.4c.2,-.4,.3,-.9,.3,-1.5c0,-2.1,-1.8,-3.8,-3.9,-3.8c-2.1,0,-3.8,1.7,-3.8,3.8c0,2.2,1.7,3.9,3.8,3.9c.2,0,.3,0,.4,0h3.1v12.4h-2.1c-.4,0,-.7,-.3,-.7,-.7c0,-3,-1.6,-5.8,-4.1,-7.5c-.3,-.1,-.6,-.3,-.9,-.6h-.1c-.7,-.5,-1.3,-1.1,-1.8,-1.7c-.7,-.6,-1.2,-1.3,-1.7,-1.9c-2,-2.9,-2.9,-6.4,-2.7,-9.9c0,-.1,0,-.2,0,-.2c.3,-2.9,1.3,-5.5,2.8,-7.8c.8,-1,1.6,-1.9,2.6,-2.8c1.4,-1.2,3,-2.1,4.8,-2.8c1.3,-.5,2.7,-.8,4.2,-.9c.3,0,.7,0,1,0c.7,0,1.3,0,1.9,.1c.8,.1,1.5,.3,2.2,.5c1.8,.4,3.4,1.2,4.8,2.3c4.1,2.9,6.5,7.6,6.5,12.6c0,.9,0,1.7,-.2,2.5Zm-11.9,2.5c0,-.8,.7,-1.5,1.5,-1.5c.8,0,1.5,.7,1.5,1.5c0,.9,-.7,1.5,-1.5,1.5c-.8,0,-1.5,-.6,-1.5,-1.5Zm-6.6,0c0,.8,-.5,1.4,-1.3,1.5h-.4c-.7,-.1,-1.3,-.7,-1.3,-1.5c0,-.8,.7,-1.5,1.5,-1.5c.8,0,1.5,.7,1.5,1.5Z" class="g1"/>
<path d="M674,1728.2h2.3v6.5H674v-6.5Z" class="g1"/>
<path d="M683.7,1728.8l2.1,1.1l-3.1,6l-2,-1.1l3,-6Z" class="g1"/>
<path d="M667.1,1729l2.2,5.7l-2.2,.8l-2.2,-5.7l2.2,-.8Z" class="g1"/>
<path d="M648.5,1810.6h26v2.4h-26v-2.4Z" class="g1"/>
<path d="M638.3,1810.6h5.4v2.4h-5.4v-2.4Z" class="g1"/>
<path d="M679.5,1797.4q-.1,0,-.2,0l-2.4,2.3c-.5,.5,-1.1,.7,-1.7,.7c-.6,0,-1.2,-.3,-1.7,-.7l-2.3,-2.2q-.1,-.1,-.1,-.1q-.1,0,-.1,.1l-2.3,2.3c-.1,0,-.2,.1,-.2,.1l3.9,4.5l1.9,2.1c.4,.5,1.2,.5,1.7,0l1.8,-2.1h.1l3.9,-4.5c0,-.1,.1,-.1,.1,-.2c0,0,-.1,0,-.1,0l-2.3,-2.3Z" class="g1"/>
<path d="M680.3,1786.9H669.9c-.9,0,-1.6,.5,-2,1.3c-.1,.2,-.1,.6,-.1,.9v8.3l1.5,-1.6c.5,-.5,1.1,-.7,1.7,-.7c.7,0,1.3,.2,1.8,.7l2.3,2.2c.1,0,.2,0,.2,0l2.4,-2.3c1,-.9,2.5,-.9,3.4,0l1.4,1.3v-7.9c0,-1.2,-1,-2.2,-2.2,-2.2Z" class="g1"/>
<path d="M320.5,1798.9l-51.8,-3.2l3.8,-59.3l51.8,3.2l-3.8,59.3Z" class="g0"/>
<path clip-path="url(#c7)" d="M320.5,1798.9l.1,-.2L269,1795.4l3.7,-58.8l51.4,3.3l-3.8,59h.2l.1,-.2l-.1,.2h.3l3.8,-59.2c0,-.1,-.1,-.2,-.1,-.2c0,-.1,-.1,-.1,-.2,-.1l-51.8,-3.2c-.1,0,-.2,0,-.2,.2l-3.8,59.2c0,.2,.1,.3,.2,.3l51.8,3.3c.1,0,.2,-.1,.2,-.1c.1,0,.1,-.1,.1,-.2h-.3Z" class="g1"/>
<path d="M277.6,1756.6c-.1,1.2,-1.1,2.1,-2.3,2c-1.2,-.1,-2.1,-1.1,-2,-2.3c0,-1.2,1.1,-2.1,2.2,-2c1.2,.1,2.1,1.1,2.1,2.3Z" class="g0"/>
<path d="M277.6,1756.6h-.3c0,1,-.9,1.8,-1.9,1.8c0,0,-.1,0,-.1,0c-1,-.1,-1.8,-.9,-1.8,-1.9q0,-.1,0,-.2c.1,-1,.9,-1.7,1.9,-1.7c0,0,.1,0,.1,0c1,0,1.8,.9,1.8,1.9v.1h.5c0,0,0,-.1,0,-.1c0,-1.3,-1,-2.3,-2.2,-2.4q-.1,0,-.2,0c-1.2,0,-2.3,.9,-2.4,2.2q0,.1,0,.2c0,1.2,1,2.2,2.3,2.3c0,0,.1,0,.1,0c1.3,0,2.3,-.9,2.4,-2.2h-.2Z" class="g1"/>
<path d="M277.2,1762.9c-.1,1.2,-1.1,2.1,-2.3,2c-1.2,-.1,-2.1,-1.1,-2,-2.3c0,-1.2,1.1,-2.1,2.2,-2c1.2,.1,2.1,1.1,2.1,2.3Z" class="g0"/>
<path d="M277.2,1762.9h-.3c0,1,-.9,1.7,-1.9,1.7c0,0,-.1,0,-.1,0c-1,0,-1.8,-.9,-1.8,-1.9v-.1c.1,-1,.9,-1.8,1.9,-1.8c0,0,.1,0,.1,0c1,.1,1.8,.9,1.8,1.9q0,.1,0,.2h.5q0,-.1,0,-.2c0,-1.2,-1,-2.2,-2.2,-2.3q-.1,0,-.2,0c-1.2,0,-2.3,.9,-2.4,2.2c0,0,0,.1,0,.1c0,1.3,1,2.3,2.3,2.4c0,0,.1,0,.1,0c1.3,0,2.3,-1,2.4,-2.2h-.2Z" class="g1"/>
<path d="M278.4,1744.1c-.1,1.2,-1.1,2.1,-2.3,2c-1.2,-.1,-2.1,-1.1,-2,-2.2c0,-1.2,1.1,-2.1,2.2,-2c1.2,0,2.1,1,2.1,2.2Z" class="g1"/>
<path d="M278,1750.4c-.1,1.2,-1.1,2.1,-2.3,2c-1.2,-.1,-2.1,-1.1,-2,-2.3c0,-1.1,1.1,-2,2.2,-2c1.2,.1,2.1,1.1,2.1,2.3Z" class="g1"/>
<path d="M276.8,1769c-.1,1.2,-1.1,2.1,-2.3,2c-1.2,0,-2.1,-1,-2,-2.2c0,-1.2,1.1,-2.1,2.3,-2c1.1,0,2,1.1,2,2.2Z" class="g0"/>
<path d="M276.8,1769h-.3c0,1,-.9,1.8,-1.9,1.8c0,0,-.1,0,-.1,0c-1,-.1,-1.8,-.9,-1.8,-1.9c0,0,0,-.1,0,-.1c.1,-1,.9,-1.8,1.9,-1.8q.1,0,.1,0c1.1,.1,1.8,.9,1.8,1.9c0,0,0,.1,0,.1h.3l.2,.1q0,-.1,0,-.2c0,-1.2,-1,-2.3,-2.2,-2.4q-.1,0,-.2,0c-1.2,0,-2.3,1,-2.4,2.3c0,0,0,.1,0,.1c0,1.3,1,2.3,2.3,2.4c0,0,.1,0,.1,0c1.3,0,2.3,-1,2.4,-2.2l-.2,-.1Z" class="g1"/>
<path d="M276.4,1775.6c-.1,1.1,-1.1,2,-2.3,2c-1.2,-.1,-2.1,-1.1,-2.1,-2.3c.1,-1.2,1.1,-2.1,2.3,-2c1.2,.1,2.1,1.1,2.1,2.3Z" class="g0"/>
<path d="M276.4,1775.6l-.3,-.1c-.1,1.1,-.9,1.8,-1.9,1.8c0,0,-.1,0,-.1,0c-1,0,-1.8,-.9,-1.8,-1.9v-.1c0,-1,.9,-1.8,1.9,-1.8c0,0,.1,0,.1,0c1,.1,1.8,.9,1.8,1.9q0,.1,0,.2v-.1l.3,.1h.2q0,-.1,0,-.2c0,-1.2,-1,-2.3,-2.2,-2.3c-.1,0,-.2,0,-.2,0c-1.3,0,-2.3,.9,-2.4,2.2c0,0,0,.1,0,.1c0,1.3,1,2.3,2.2,2.4c.1,0,.2,0,.2,0c1.3,0,2.3,-1,2.4,-2.2h-.2Z" class="g1"/>
<path d="M275.9,1782c0,1.1,-1.1,2,-2.2,2c-1.2,-.1,-2.1,-1.1,-2.1,-2.3c.1,-1.2,1.1,-2.1,2.3,-2c1.2,.1,2.1,1.1,2,2.3Z" class="g0"/>
<path d="M275.9,1782h-.2c-.1,1,-.9,1.7,-1.9,1.7c0,0,-.1,0,-.1,0c-1,0,-1.8,-.9,-1.8,-1.9v-.1c0,-1,.9,-1.8,1.9,-1.8c0,0,.1,0,.1,0c1,.1,1.8,.9,1.8,1.9q0,.1,0,.2h.5q0,-.1,0,-.2c0,-1.2,-1,-2.3,-2.3,-2.3c0,0,-.1,0,-.1,0c-1.3,0,-2.3,.9,-2.4,2.2c0,0,0,.1,0,.1c0,1.3,1,2.3,2.2,2.4q.1,0,.2,0c1.2,0,2.3,-1,2.4,-2.2h-.3Z" class="g1"/>
<path d="M275.5,1788.7c-.1,1.2,-1.1,2.1,-2.3,2c-1.2,0,-2.1,-1.1,-2,-2.2c.1,-1.2,1.1,-2.1,2.3,-2c1.2,0,2.1,1,2,2.2Z" class="g0"/>
<path d="M275.5,1788.7h-.2c-.1,1,-.9,1.8,-1.9,1.8q-.1,0,-.2,0c-1,-.1,-1.8,-.9,-1.8,-1.9c0,0,0,-.1,0,-.1c.1,-1,1,-1.8,2,-1.8h.1c1,.1,1.8,.9,1.8,1.9c0,0,0,.1,0,.1h.4c.1,0,.1,-.1,.1,-.1c0,-1.3,-1,-2.3,-2.3,-2.4c0,0,-.1,0,-.1,0c-1.3,0,-2.3,1,-2.4,2.2q0,.1,0,.2c0,1.2,.9,2.3,2.2,2.4q.1,0,.2,0c1.2,0,2.3,-1,2.3,-2.3h-.2Z" class="g1"/>
<path d="M318.1,1747.1l-36.5,-2.3l.1,-.9l36.5,2.3l-.1,.9Z" class="g1"/>
<path d="M317.9,1749.6l-36.5,-2.3l.1,-.8l36.5,2.3l-.1,.8Z" class="g1"/>
<path d="M317.8,1752.5l-36.5,-2.3v-.8l36.5,2.2v.9Z" class="g1"/>
<path d="M317.6,1755l-36.5,-2.3v-.8l36.6,2.2l-.1,.9Z" class="g1"/>
<path d="M317.5,1757.4l-36.6,-2.3l.1,-.8l36.5,2.3v.8Z" class="g1"/>
<path d="M317.3,1760l-36.5,-2.3v-.8l36.5,2.3v.8Z" class="g1"/>
<path d="M317.1,1762.8l-36.5,-2.3v-.8l36.6,2.3l-.1,.8Z" class="g1"/>
<path d="M316.9,1765.3L280.4,1763l.1,-.8l36.5,2.3l-.1,.8Z" class="g1"/>
<path d="M316.8,1768l-36.5,-2.3v-.8l36.5,2.3v.8Z" class="g1"/>
<path d="M316.6,1770.6l-36.5,-2.3v-.8l36.6,2.3l-.1,.8Z" class="g1"/>
<path d="M316.4,1773.4l-36.5,-2.3l.1,-.8l36.5,2.3l-.1,.8Z" class="g1"/>
<path d="M316.3,1775.9l-36.5,-2.3v-.8l36.5,2.3v.8Z" class="g1"/>
<path d="M316.1,1778.4l-36.5,-2.3l.1,-.9l36.5,2.3l-.1,.9Z" class="g1"/>
<path d="M316,1780.9l-36.6,-2.2l.1,-.9l36.5,2.3v.8Z" class="g1"/>
<path d="M315.8,1783.8l-36.5,-2.3v-.8l36.5,2.2v.9Z" class="g1"/>
<path d="M315.6,1786.3L279.1,1784v-.8l36.6,2.3l-.1,.8Z" class="g1"/>
<path d="M315.4,1788.9l-36.5,-2.3l.1,-.9l36.5,2.3l-.1,.9Z" class="g1"/>
<path d="M315.3,1791.4l-36.5,-2.3v-.8l36.5,2.2v.9Z" class="g1"/>
<path d="M309,1812.7l-51.8,-3.3l3.8,-59.2l42,2.6l9.3,8.8l-3.3,51.1Z" class="g0"/>
<path d="M309,1812.7v-.2l-51.6,-3.3l3.8,-58.8l41.7,2.6l9.1,8.7l-3.2,51h.2v-.2v.2h.2l3.3,-51.1q0,-.1,-.1,-.2l-9.3,-8.8c0,0,-.1,0,-.1,0l-42,-2.7c-.2,0,-.3,.1,-.3,.3l-3.8,59.2c0,.2,.1,.3,.3,.3l51.8,3.2c0,0,.1,0,.2,0q0,-.1,0,-.2H309Z" class="g1"/>
<path d="M266,1770.4c-.1,1.1,-1.1,2,-2.3,2c-1.2,-.1,-2.1,-1.1,-2,-2.3c.1,-1.2,1.1,-2.1,2.3,-2c1.2,.1,2.1,1.1,2,2.3Z" class="g1"/>
<path d="M265.6,1776.7c-.1,1.1,-1.1,2,-2.3,2c-1.2,-.1,-2.1,-1.1,-2,-2.3c.1,-1.2,1.1,-2.1,2.3,-2c1.2,.1,2.1,1.1,2,2.3Z" class="g1"/>
<path d="M266.8,1757.9c-.1,1.2,-1.1,2.1,-2.3,2c-1.2,-.1,-2.1,-1.1,-2,-2.3c.1,-1.1,1.1,-2,2.3,-2c1.2,.1,2.1,1.1,2,2.3Z" class="g1"/>
<path d="M266.4,1764.2c-.1,1.2,-1.1,2.1,-2.3,2c-1.2,-.1,-2.1,-1.1,-2,-2.3c.1,-1.2,1.1,-2.1,2.3,-2c1.2,.1,2.1,1.1,2,2.3Z" class="g1"/>
<path d="M265.2,1782.8c-.1,1.2,-1.1,2.1,-2.3,2c-1.2,-.1,-2.1,-1.1,-2,-2.3c.1,-1.1,1.1,-2,2.3,-2c1.2,.1,2.1,1.1,2,2.3Z" class="g1"/>
<path d="M264.8,1789.3c-.1,1.2,-1.1,2.1,-2.3,2c-1.2,0,-2.1,-1.1,-2,-2.2c.1,-1.2,1.1,-2.1,2.3,-2c1.2,0,2.1,1.1,2,2.2Z" class="g1"/>
<path d="M264.4,1795.7c-.1,1.2,-1.1,2.1,-2.3,2c-1.2,0,-2.1,-1,-2,-2.2c.1,-1.2,1.1,-2.1,2.3,-2c1.2,0,2.1,1.1,2,2.2Z" class="g1"/>
<path d="M264,1802.5c-.1,1.2,-1.1,2.1,-2.3,2c-1.2,-.1,-2.1,-1.1,-2,-2.3c0,-1.1,1.1,-2,2.2,-2c1.2,.1,2.1,1.1,2.1,2.3Z" class="g1"/>
<path d="M306.6,1760.8L270,1758.5l.1,-.8l36.5,2.3v.8Z" class="g1"/>
<path d="M306.4,1763.4l-36.5,-2.3v-.8l36.5,2.3v.8Z" class="g1"/>
<path d="M306.2,1766.3L269.7,1764l.1,-.9l36.5,2.3l-.1,.9Z" class="g1"/>
<path d="M306.1,1768.8l-36.6,-2.3l.1,-.9l36.5,2.3v.9Z" class="g1"/>
<path d="M305.9,1771.2l-36.5,-2.3v-.8l36.6,2.2l-.1,.9Z" class="g1"/>
<path d="M305.7,1773.8l-36.5,-2.3l.1,-.9l36.5,2.3l-.1,.9Z" class="g1"/>
<path d="M305.6,1776.6L269,1774.3l.1,-.8l36.5,2.3v.8Z" class="g1"/>
<path d="M305.4,1779.1l-36.5,-2.3v-.8l36.5,2.3v.8Z" class="g1"/>
<path d="M305.2,1781.8l-36.5,-2.3l.1,-.8l36.5,2.2l-.1,.9Z" class="g1"/>
<path d="M305.1,1784.4l-36.6,-2.3l.1,-.9l36.5,2.3v.9Z" class="g1"/>
<path d="M304.9,1787.2l-36.5,-2.3v-.8l36.5,2.3v.8Z" class="g1"/>
<path d="M304.7,1789.7l-36.5,-2.3l.1,-.8l36.5,2.3l-.1,.8Z" class="g1"/>
<path d="M304.6,1792.1l-36.5,-2.3v-.8l36.5,2.3v.8Z" class="g1"/>
<path d="M304.4,1794.7l-36.5,-2.3v-.8l36.6,2.3l-.1,.8Z" class="g1"/>
<path d="M304.2,1797.6l-36.5,-2.3l.1,-.9l36.5,2.3l-.1,.9Z" class="g1"/>
<path d="M304.1,1800.1l-36.6,-2.3l.1,-.9l36.5,2.3v.9Z" class="g1"/>
<path d="M303.9,1802.6l-36.5,-2.2v-.9l36.5,2.3v.8Z" class="g1"/>
<path d="M303.7,1805.2l-36.5,-2.3l.1,-.9l36.5,2.3l-.1,.9Z" class="g1"/>
<path d="M303,1752.8l9.3,8.8c0,0,-5.8,3.7,-10.1,3.1c.6,-1.8,.8,-11.9,.8,-11.9Z" class="g0"/>
<path d="M303,1752.8l-.2,.2l9.3,8.7l.2,-.1l-.2,-.2c-.3,.2,-1.6,1,-3.2,1.7c-1.7,.7,-3.8,1.4,-5.6,1.4c-.4,0,-.7,0,-1.1,0v.2l.2,.1c.1,-.3,.2,-.6,.2,-1.1c.2,-1.6,.4,-4.3,.5,-6.6c.1,-2.3,.1,-4.3,.1,-4.3H303l-.2,.2l.2,-.2h-.3c0,0,0,.2,0,.4c0,1,-.1,3.5,-.2,5.9c-.1,1.2,-.1,2.4,-.2,3.4c-.1,.5,-.1,.9,-.2,1.3c0,.4,-.1,.6,-.1,.8c0,.1,0,.2,0,.2c0,.1,.1,.1,.2,.1c.3,.1,.7,.1,1.1,.1c2.1,0,4.4,-.8,6.1,-1.6c1.8,-.8,3,-1.6,3,-1.6q.1,-.1,.1,-.2q0,-.1,-.1,-.2l-9.3,-8.8c0,0,-.1,0,-.2,0c-.1,0,-.2,.1,-.2,.2h.3Z" class="g1"/>
<path d="M1022.5,1775.8h1c.6,0,1.2,.5,1.2,1.2v.7l2,-1.6c.2,-.2,.5,-.2,.8,-.2h6.2v-5.7h-11.2v5.6Z" class="g1"/>
<path clip-path="url(#c8)" d="M1052.8,1783l-4.6,-8.5l4.6,-8.4c3.5,-.3,6.8,-1.8,9.3,-4.3c2.8,-2.9,4.4,-6.6,4.4,-10.7c0,-8.2,-6.7,-15,-15,-15c-8.3,0,-15,6.8,-15,15c0,3.9,1.5,7.7,4.2,10.4c2.5,2.7,5.8,4.2,9.4,4.6l-4,7.2h-3.7c-.6,-7.3,-6.8,-13.2,-14.3,-13.2c-7.5,0,-13.8,5.9,-14.4,13.2h-3.1l-4,-7.3c3.3,-.4,6.3,-1.9,8.6,-4.2c2.9,-2.9,4.4,-6.6,4.4,-10.7c.1,-8.2,-6.6,-15,-14.9,-15c-8.3,0,-15,6.8,-15,15c0,3.9,1.5,7.7,4.2,10.4c2.7,2.8,6.2,4.4,10.1,4.6l4.6,8.4l-4.6,8.4c-8,.5,-14.3,7,-14.3,15c0,3.9,1.5,7.7,4.2,10.4c2.9,3,6.6,4.7,10.8,4.7c4,0,7.8,-1.6,10.6,-4.4c2.8,-2.9,4.4,-6.6,4.4,-10.7c0,-7.6,-5.7,-13.9,-13,-14.8l3.9,-7.4h3.1c.6,7.4,6.9,13.2,14.4,13.2c7.5,0,13.7,-5.8,14.3,-13.2h3.7l4,7.3c-7.6,.7,-13.6,7.1,-13.6,14.9c0,3.9,1.5,7.7,4.2,10.4c2.9,3,6.6,4.7,10.8,4.7c4,0,7.8,-1.6,10.6,-4.4c2.8,-2.9,4.4,-6.6,4.4,-10.7c0,-7.8,-6,-14.2,-13.7,-14.9Zm-7.1,-25.6c-.1,0,-2.1,.4,-4,1.7c-1.8,-2.3,-2.8,-5,-2.8,-8c0,-6.9,5.6,-12.6,12.6,-12.6c6.9,0,12.6,5.7,12.6,12.6c0,3,-1,5.9,-3,8.1c-1.8,-1.3,-4,-1.7,-4.2,-1.7c-1,-.2,-1.3,-1.6,-1.3,-1.8c1.4,-1.6,2.1,-3.5,2.4,-4.7c.2,-.7,.3,-1.4,.3,-2.1c0,-.3,0,-.6,0,-.9c.5,-1.2,.5,-2.5,.2,-3.6c-.2,-.8,-1,-1.3,-1.8,-1.2c-.7,0,-2.2,-.5,-3.1,-.8c-3.7,-1.6,-6.5,.2,-7.6,1.5c-1.7,.8,-2,2.9,-1.9,4.6c0,.1,0,.2,0,.4c0,2.4,1.1,5.2,2.7,7.1q.1,.1,.1,.1c-.1,.5,-.5,1.2,-1.2,1.3Zm2.9,-3c-.6,-.7,-1,-1.5,-1.4,-2.4h1c.1,0,.2,0,.4,0c.5,-.1,.8,-.3,1.4,-2.1c2.6,1.5,5.1,.8,5.3,.8l.1,-.1c.1,-.1,.2,-.1,.3,-.2c-.5,1.9,-1.5,3.5,-2.7,4.5c-1.3,1.1,-3.2,.9,-4.4,-.5Zm-49.7,3c-.1,0,-2.1,.4,-4,1.7c-1.8,-2.3,-2.8,-5,-2.8,-8c0,-6.9,5.6,-12.6,12.6,-12.6c6.9,0,12.6,5.7,12.6,12.6c0,3,-1,5.9,-3,8.1c-1.8,-1.3,-4,-1.7,-4.2,-1.7c-1,-.2,-1.3,-1.6,-1.3,-1.8c1.4,-1.6,2.1,-3.5,2.4,-4.7c.2,-.7,.3,-1.4,.3,-2.1c0,-.3,0,-.6,0,-.9c.5,-1.2,.5,-2.5,.2,-3.6c-.2,-.8,-1,-1.3,-1.8,-1.2c-.7,0,-2.2,-.5,-3.1,-.8c-3.7,-1.6,-6.5,.2,-7.6,1.5c-1.7,.8,-2,2.9,-1.9,4.6c0,.1,0,.2,0,.4c0,2.4,1.1,5.2,2.7,7.1q.1,.1,.1,.1c-.1,.5,-.5,1.2,-1.2,1.3Zm7.3,-2.5c-1.3,1,-3.2,.8,-4.4,-.5c-.6,-.7,-1,-1.5,-1.4,-2.4h1c.1,0,.2,0,.4,0c.5,-.1,.8,-.3,1.4,-2.1c2.6,1.5,5.1,.8,5.3,.8l.1,-.1c.1,-.1,.2,-.1,.3,-.2c-.6,1.9,-1.5,3.6,-2.7,4.5Zm0,46.8c-1.3,1,-3.2,.8,-4.4,-.5c-.6,-.7,-1,-1.5,-1.4,-2.4h1c.1,0,.2,0,.4,0c.5,-.1,.8,-.3,1.4,-2.1c2.6,1.5,5.1,.8,5.3,.8l.1,-.1c.1,-.1,.2,-.1,.3,-.2c-.6,1.9,-1.5,3.6,-2.7,4.5Zm11.1,-3.8c0,3,-1,5.9,-3,8.1c-1.8,-1.3,-4.1,-1.8,-4.2,-1.8c-1,-.1,-1.3,-1.5,-1.3,-1.8c1.4,-1.6,2.1,-3.5,2.4,-4.6c.2,-.8,.3,-1.5,.3,-2.2c0,-.3,0,-.5,0,-.8c.5,-1.2,.5,-2.6,.2,-3.7c-.2,-.8,-1,-1.3,-1.8,-1.2c-.7,.1,-2.2,-.4,-3.1,-.8c-3.7,-1.6,-6.5,.2,-7.6,1.6c-1.7,.8,-2,2.8,-1.9,4.5c0,.2,0,.3,0,.4c0,2.5,1.1,5.3,2.7,7.1q.1,.1,.1,.2c-.1,.4,-.5,1.2,-1.2,1.3c-.1,0,-2.1,.4,-4,1.7c-1.8,-2.3,-2.8,-5,-2.8,-8c0,-6.9,5.6,-12.6,12.6,-12.6c6.9,0,12.6,5.7,12.6,12.6Zm18.8,-20.9c0,.7,-.6,1.2,-1.2,1.2h-7.1l-3.6,2.9c-.3,.2,-.5,.3,-.8,.3c-.2,0,-.4,-.1,-.5,-.1c-.5,-.2,-.7,-.6,-.7,-1.1v-2.1h-1c-.6,0,-1.2,-.5,-1.2,-1.2v-8c0,-.7,.6,-1.2,1.2,-1.2h13.7c.6,0,1.2,.5,1.2,1.2v8.1Zm16.9,24.7c-1.3,1,-3.2,.8,-4.4,-.5c-.6,-.7,-1,-1.5,-1.4,-2.4h1c.1,0,.2,0,.4,0c.5,-.1,.8,-.3,1.4,-2.1c2.6,1.5,5.1,.8,5.3,.8l.1,-.1c.1,-.1,.2,-.1,.3,-.2c-.6,1.9,-1.5,3.6,-2.7,4.5Zm8.1,4.3c-1.8,-1.3,-4,-1.7,-4.2,-1.7c-1,-.2,-1.3,-1.6,-1.3,-1.8c1.4,-1.6,2.1,-3.5,2.4,-4.7c.2,-.7,.3,-1.4,.3,-2.1c0,-.3,0,-.6,0,-.9c.5,-1.2,.5,-2.5,.2,-3.6c-.2,-.8,-1,-1.3,-1.8,-1.2c-.6,0,-2.2,-.5,-3.1,-.8c-3.7,-1.6,-6.5,.2,-7.6,1.5c-1.7,.8,-2,2.9,-1.9,4.6c0,.1,0,.2,0,.4c0,2.4,1.1,5.2,2.7,7.1q.1,.1,.1,.1c-.1,.5,-.5,1.2,-1.2,1.4c-.1,0,-2.1,.4,-4,1.6c-1.8,-2.2,-2.8,-5,-2.8,-7.9c0,-7,5.6,-12.6,12.6,-12.6c6.9,0,12.6,5.6,12.6,12.6c0,2.9,-1,5.8,-3,8Z" class="g1"/>
<path d="M220.9,1996.8c4.9,3.9,9.5,5.4,13.4,5.4c0,0,.1,0,.1,0c2.4,0,4.4,-.6,6.2,-1.3l-2.4,16.1l-8,31.3c-.6,2.3,.7,4.5,3,5.1c2.2,.6,4.5,-.8,5.1,-3l7.6,-29.5l2,.3v28.1c0,2.3,1.9,4.2,4.2,4.2c2.3,0,4.2,-1.9,4.2,-4.2V2020q0,-.1,0,-.2l2.9,-19.1c.2,-.2,.4,-.4,.6,-.6c0,-.1,.4,-.6,1.2,-1.3c-.4,-.3,-.9,-.7,-1.4,-1c-.9,-.7,-1.9,-1.4,-3,-2c-.2,-.1,-.5,-.2,-.7,-.4c.3,.1,.5,.2,.8,.3c1,.4,1.9,.8,2.7,1.3c.1,0,.2,.1,.3,.2c.7,.4,1.3,.8,1.8,1.2c.4,.3,.7,.6,1,.8v50.3c0,2.3,1.9,4.2,4.2,4.2c2.3,0,4.2,-1.9,4.2,-4.2v-26.8h1.6v26.8c0,2.3,1.8,4.2,4.2,4.2c2.3,0,4.2,-1.9,4.2,-4.2v-50.3c.2,-.2,.6,-.5,1,-.8c.5,-.4,1.1,-.8,1.8,-1.2c.1,-.1,.2,-.2,.3,-.2c.8,-.5,1.7,-.9,2.6,-1.3c.3,-.1,.6,-.2,.8,-.3c-.2,.2,-.4,.3,-.7,.4c-1,.6,-2,1.3,-2.9,2c-.6,.3,-1,.7,-1.4,1c.7,.7,1.1,1.2,1.2,1.3c.1,.2,.4,.4,.6,.6l2.8,19.1q0,.1,.1,.2v29.3c0,2.3,1.8,4.2,4.2,4.2c2.3,0,4.2,-1.9,4.2,-4.2v-28.1l2,-.3l7.5,29.5c.6,2.2,2.9,3.6,5.2,3c2.2,-.6,3.6,-2.8,3,-5.1l-8,-31.3l-2.4,-16.1c1.7,.7,3.8,1.3,6.2,1.3c3.9,0,8.5,-1.5,13.5,-5.4c1.1,-.9,1.3,-2.5,.4,-3.6c-.9,-1.2,-2.5,-1.4,-3.7,-.5c-4.2,3.3,-7.6,4.3,-10.2,4.3c-.2,0,-.3,0,-.5,0c-.1,.4,-.3,.8,-.5,1.1c-.6,.9,-1.6,1.4,-2.7,1.4c-.6,0,-1.3,-.2,-1.8,-.6c-.4,-.2,-.7,-.4,-1.1,-.7c-1,-.7,-2.2,-1.5,-3.4,-2.4c1,.4,2.1,.9,3.3,1.6c.5,.3,1,.6,1.5,1c1.2,.8,2.8,.5,3.7,-.6c.1,-.3,.3,-.6,.3,-.9c.3,-1,-.1,-2.1,-1,-2.7c-2.8,-2,-5.5,-3.3,-8.2,-4c-.2,.6,-.5,1.2,-.9,1.8c-.1,0,-.1,.1,-.2,.2c-.4,.5,-.8,1,-1.3,1.4q-.1,.1,-.2,.2c-.4,.3,-.9,.6,-1.4,.9c-1.1,.5,-2.4,.9,-3.8,.9c-.6,0,-1.2,-.1,-1.9,-.2c-.2,-.1,-.4,-.2,-.6,-.2c-.1,0,-.1,-.1,-.2,-.1c-.8,-.3,-1.6,-.7,-2.3,-1.2c-.8,-.6,-1.5,-1.4,-2,-2.2c-.1,-.1,-.1,-.2,-.2,-.3c-.5,.2,-1,.4,-1.5,.7c-1.2,-.8,-2.7,-1.5,-4.4,-2.1c0,.1,-.1,.2,-.2,.3c-1.5,1.5,-3.6,2.4,-5.8,2.4c-.6,0,-1.3,-.1,-1.9,-.3c-1.5,-.3,-2.9,-1.1,-4,-2.1c0,-.1,-.1,-.2,-.2,-.3c-1.7,.6,-3.1,1.3,-4.4,2.1c-.5,-.3,-.9,-.5,-1.5,-.7c0,.1,-.1,.2,-.1,.3c-.6,.8,-1.3,1.6,-2.1,2.2c-.7,.5,-1.4,.9,-2.3,1.2c0,0,-.1,.1,-.2,.1c-.2,0,-.4,.1,-.6,.2c-.6,.1,-1.3,.2,-1.9,.2c-1.3,0,-2.6,-.4,-3.8,-.9c-.5,-.3,-.9,-.6,-1.4,-.9c0,-.1,-.1,-.1,-.1,-.2c-.5,-.4,-1,-.9,-1.4,-1.4c0,-.1,-.1,-.2,-.1,-.2c-.4,-.6,-.7,-1.2,-1,-1.8c-2.6,.7,-5.4,2,-8.2,4c-.9,.6,-1.3,1.7,-1,2.7c.1,.3,.2,.6,.4,.9c.8,1.1,2.4,1.4,3.6,.6c.5,-.4,1.1,-.7,1.6,-1c1.1,-.7,2.2,-1.2,3.3,-1.6c-1.3,.9,-2.5,1.7,-3.4,2.4c-.4,.3,-.8,.5,-1.1,.7c-.6,.4,-1.2,.6,-1.9,.6c-1,0,-2,-.5,-2.6,-1.4c-.3,-.3,-.5,-.7,-.6,-1.1c-.1,0,-.3,0,-.4,0c-2.6,0,-6,-1,-10.3,-4.3c-1.1,-.9,-2.8,-.7,-3.7,.5c-.8,1.1,-.6,2.7,.5,3.6Z" class="g1"/>
<path d="M246.8,1992.3c.2,.3,.6,.6,.9,.9c.7,.6,1.6,1.1,2.5,1.4c1.1,.3,2.2,.4,3.4,.2c.2,0,.4,0,.7,-.1c.8,-.2,1.6,-.5,2.3,-.9c1.1,-.7,1.9,-1.6,2.5,-2.7q.1,0,.1,0c.9,-1.6,1.2,-3.6,.8,-5.5c-1,-4.1,-5.1,-6.7,-9.2,-5.7c-4.1,.9,-6.7,5,-5.7,9.1c0,.2,0,.3,.1,.4c0,.2,.1,.4,.2,.6c.3,.9,.8,1.6,1.4,2.3Z" class="g1"/>
<path d="M284.2,1991.1c.6,1.1,1.5,2,2.6,2.7c.7,.4,1.4,.7,2.3,.9c.2,.1,.4,.1,.6,.1c1.2,.2,2.4,.1,3.5,-.2c.9,-.3,1.7,-.8,2.4,-1.4c.4,-.3,.7,-.6,1,-.9c.6,-.7,1,-1.4,1.4,-2.3c.1,-.2,.1,-.4,.2,-.6c0,-.1,0,-.2,.1,-.4c.9,-4.1,-1.6,-8.2,-5.7,-9.1c-4.2,-1,-8.3,1.6,-9.2,5.7c-.5,1.9,-.1,3.9,.8,5.5Z" class="g1"/>
<path clip-path="url(#c9)" d="M269.9,1991.8c2.6,.6,5.1,-.1,6.9,-1.8c.1,0,.1,-.1,.2,-.2c1,-.9,1.8,-2.2,2.1,-3.7c1,-4.1,-1.6,-8.2,-5.7,-9.1c-4.1,-1,-8.2,1.6,-9.2,5.7c-.6,2.6,.3,5.3,2.1,7.1c.1,.1,.2,.2,.3,.2c.9,.9,2,1.5,3.3,1.8Z" class="g1"/>
<path clip-path="url(#ca)" d="M683,2025.7c1.3,-.6,.6,-1.6,.6,-1.6c1.4,-.6,.9,-1.8,.9,-1.8c10.6,-1.9,4.1,-16.1,4.1,-16.1c-.7,3.2,-2.9,4,-2.9,4c-9.8,4.3,-4.1,11.1,-4.1,11.1c-1.2,.3,-.8,1.6,-.8,1.6c-1.2,.5,-.8,1.9,-.8,1.9c-8.3,3.5,-11,29,-11,29c18.3,-22.5,14,-28.1,14,-28.1Z" class="g1"/>
<path d="M674.2,2015.6c-7.9,8.4,-14.3,-.1,-14.3,-.1l-1,3.4c7.8,8.7,16.1,.8,16.1,.8l-.8,-4.1Z" class="g1"/>
<path d="M653.5,1989.1c1.1,.9,1.8,.6,2.9,.1c2.8,-1.4,5.6,-1.3,8.7,-1c4.8,.5,11.3,2.7,15.8,.1c1.5,-.8,2.6,-2.3,2.8,-3.9c.4,-3.5,-1.3,-6.4,-4.6,-7.4c-2.4,-.8,-4.6,0,-6.7,1.2c-.6,.3,-1.3,.7,-2.1,1.2c-.3,.1,-1.7,1,-2.1,.7c-.4,-.2,.2,-.4,.1,-.6c-.1,-.9,-.2,-1,-1.2,-1c-1.1,0,-2.6,.5,-1.9,1.7c-.7,0,-1.3,-.2,-2,-.3c-1.8,-.4,-3.7,-.5,-5.5,-.2c-3.1,.6,-6.2,3.2,-5.9,6.6c.2,1,.9,2.1,1.7,2.8Z" class="g1"/>
<path d="M655.4,1998c-.9,-1.1,-2.2,-2,-2.7,-.4c-.6,1.6,.3,3.5,.8,4.9c.5,1.2,.6,3.9,2.3,3.6c0,0,.1,0,.2,0c.3,1.1,.6,2.3,1.1,3.5c1.5,3.3,3.9,6.4,7.2,7.9c4,2,8,-1.3,10.4,-4.5c1.3,-1.7,2.6,-3.7,3.2,-5.8c.1,-.5,.2,-.9,.3,-1.3c.1,0,.3,0,.3,.1c1.7,.2,1.8,-2.5,2.2,-3.6c.5,-1.4,1.4,-3.3,.9,-4.9c-.5,-1.5,-1.6,-.8,-2.5,.1c.2,-1.7,.2,-3.5,.2,-5.3c0,-.3,.3,-1.4,0,-1.6c-.2,-.3,-1.3,0,-1.7,0c-1.5,0,-2.9,0,-4.4,-.2c-2.7,-.2,-5.4,-.7,-8.1,-1c-2.1,-.2,-4.2,-.4,-6.3,.1c-.8,.2,-2.5,.6,-2.9,1.3c-.5,.8,-.3,2.7,-.3,3.6c-.1,1.3,-.2,2.4,-.2,3.5Z" class="g1"/>
<path d="M691.6,2023.8c-1.6,-.2,-3.1,-.6,-4.4,-.9c-.4,.2,-.8,.3,-1.2,.4c-.1,.5,-.3,1,-.7,1.4c0,.3,-.1,.5,-.1,.8c-.1,.2,-.3,.5,-.5,.8c.3,1,.3,2.8,-.4,5.4c-1.4,5,-5.1,11.3,-11,19.1c13.4,-1.3,29.4,-6,29.4,-6c-5.7,-18.4,-11.1,-21,-11.1,-21Z" class="g1"/>
<path d="M678.6,2024c0,-.7,.3,-1.3,.7,-1.8c.1,-.4,.2,-.8,.4,-1.2c-.1,-.2,-.2,-.4,-.3,-.6c-1.6,-.7,-2.5,-1.2,-2.5,-1.2c-3.2,4.6,-8.3,5,-8.3,5l-1.2,26.8c.2,0,.4,0,.6,0c.3,-2.6,1,-6.6,2,-10.8c2.3,-8.7,5.1,-14.2,8.6,-16.2Z" class="g1"/>
<path d="M659.9,2021.9c.2,.4,.3,.7,.5,1c1.9,3.8,3.6,8.6,.8,12.7c-.6,1,-1.7,1.7,-2.7,2.2c1.4,.8,1.9,2.2,1.6,3.9c-.7,2.5,-2.9,4.3,-6.7,5.1c-.8,.2,-1.6,.3,-2.6,.3c-4,0,-8,-1.9,-10.7,-3.3c-2.5,-1.3,-4.7,-2.9,-6.4,-4.7c-.6,1.7,-1.2,3.6,-1.9,5.8c0,0,21.2,6.1,35.2,6.2l-1.2,-26.7c0,0,-2.8,0,-5.9,-2.5Z" class="g1"/>
<path d="M634.2,2021c.4,-1.4,1.9,-2.2,3.3,-1.8c1.4,.5,2.1,1.9,1.7,3.4c-.5,1.4,-1.9,2.2,-3.3,1.7c-1.4,-.4,-2.2,-1.9,-1.7,-3.3Zm6.7,-4.3c.4,-1.4,1.9,-2.2,3.3,-1.7c1.4,.4,2.1,1.9,1.7,3.3c-.5,1.4,-1.9,2.2,-3.3,1.8c-1.4,-.5,-2.2,-2,-1.7,-3.4Zm6.9,2.4c.5,-1.4,1.9,-2.2,3.3,-1.8c1.4,.4,2.2,1.9,1.7,3.3c-.4,1.4,-1.9,2.2,-3.2,1.8c-1.5,-.5,-2.2,-2,-1.8,-3.3Zm7.5,4.5c1.4,.5,2.2,1.9,1.7,3.4c-.4,1.3,-1.9,2.2,-3.3,1.7c-1.4,-.4,-2.1,-1.9,-1.7,-3.3c.5,-1.4,2,-2.2,3.3,-1.8Zm-14.5,19c3.7,2,8.2,3.8,12.3,2.9c2.6,-.6,5,-1.8,5.6,-4.2c.2,-1.1,-.1,-2,-1.5,-2.5c-1.1,-.5,-2.1,-.3,-3.2,-.1c-1,.3,-2.5,1.1,-3.6,.3c-1,-.9,-.5,-2.4,.6,-2.7c1,-.2,2.3,.4,3.2,.6c2.3,.4,4.6,-.3,5.8,-2c2.4,-3.5,.9,-7.7,-.9,-11.4c-1.8,-3.8,-4.6,-7,-8.7,-9.2c-4.4,-2.4,-8.6,-2.2,-12,-.4c-4.7,2.4,-7.9,7.7,-7.9,12.6c0,2.3,.3,5.4,1.3,7.6c1.8,3.5,5.2,6.5,9,8.5Z" class="g1"/>
<path d="M1081.9,1976l-59.6,14l.6,-6.4l-19.3,8.6l-1,2.5l-33,7.7l23.1,20.7l9.3,-4.7l-1.1,12.1l26.3,23.5l54.7,-78Zm-23.7,9.7l-37.1,18.7l.8,-10.2l36.3,-8.5Zm10.6,2l-42.3,60.3l-19.2,-17.1l61.5,-43.2Zm-10.3,2.3l-38.6,27.1l.7,-8l37.9,-19.1Zm-40.2,.1l-2.6,30.1l-10.5,7.3l2.9,-32.9l10.2,-4.5Zm-17.7,9.1l-7.9,18.6l-14.8,-13.2l22.7,-5.4Zm2.7,4l-.9,10.6l-4.6,2.3l5.5,-12.9Z" class="g1"/>
<path clip-path="url(#cb)" d="M-4.1,2223.5H1303.6v396.6H-4.1V2223.5Z" class="g2"/>
<path d="M183.7,2329.5c0,1.1,-.1,2.2,-.4,3.2c-.2,1.1,-.5,2.1,-.9,3.1c-.4,1,-.9,1.9,-1.5,2.8c-.6,.9,-1.3,1.8,-2,2.5c-.8,.8,-1.6,1.5,-2.5,2.1c-.9,.5,-1.9,1.1,-2.9,1.5c-1,.4,-2,.7,-3.1,.9c-1,.2,-2.1,.3,-3.2,.3c-1,0,-2.1,-.1,-3.2,-.3c-1,-.2,-2,-.5,-3,-.9c-1,-.4,-2,-1,-2.9,-1.5c-.9,-.6,-1.7,-1.3,-2.5,-2.1c-.7,-.7,-1.4,-1.6,-2,-2.5c-.6,-.9,-1.1,-1.8,-1.5,-2.8c-.4,-1,-.7,-2,-1,-3.1c-.2,-1,-.3,-2.1,-.3,-3.2c0,-1,.1,-2.1,.3,-3.1c.3,-1.1,.6,-2.1,1,-3.1c.4,-1,.9,-2,1.5,-2.8c.6,-.9,1.3,-1.8,2,-2.5c.8,-.8,1.6,-1.5,2.5,-2.1c.9,-.6,1.9,-1.1,2.9,-1.5c1,-.4,2,-.7,3,-.9c1.1,-.2,2.2,-.3,3.2,-.3c1.1,0,2.2,.1,3.2,.3c1.1,.2,2.1,.5,3.1,.9c1,.4,2,.9,2.9,1.5c.9,.6,1.7,1.3,2.5,2.1c.7,.7,1.4,1.6,2,2.5c.6,.8,1.1,1.8,1.5,2.8c.4,1,.7,2,.9,3.1c.3,1,.4,2.1,.4,3.1Z" class="g3"/>
<path d="M206.5,2389.3v-11.9c2.1,-.9,3.6,-2.9,3.6,-5.2V2368c0,-2.3,-1.5,-4.3,-3.6,-5.2v-10.5c0,-1.2,-.8,-2,-1.8,-2c-.3,0,-.6,0,-.9,.1l-9,3.2c-3.7,-4.6,-8.7,-8.1,-14.5,-9.9c-3.5,3.1,-8,5.1,-13.1,5.1c-5,0,-9.5,-2,-13,-5.1c-6.1,1.9,-11.2,5.6,-15,10.5l-8.5,-2.8c-.3,-.1,-.6,-.2,-.8,-.2c-1.1,0,-1.9,.9,-1.9,2.1v9.5c-2.1,.9,-3.6,2.9,-3.6,5.2v4.2c0,2.3,1.5,4.3,3.6,5.2v11.4c0,1.6,1.2,3.3,2.7,3.8l33.6,10.8c.8,.2,1.8,.4,2.8,.4c1,0,1.9,-.2,2.7,-.4l34,-10.4c1.5,-.4,2.7,-2.1,2.7,-3.7Zm-40.7,11.5c-.2,0,-.5,-.1,-.6,-.1l-33.6,-10.9c-.3,-.1,-.8,-.6,-.8,-1v-10.9c3.2,-.2,5.8,-2.6,5.8,-5.7V2368c0,-3.1,-2.6,-5.5,-5.8,-5.7v-7.9l32.6,10.9c.8,.3,1.7,.4,2.4,.5v35Zm37.8,-38.5c-3.1,.2,-5.7,2.6,-5.7,5.7v4.2c0,3.1,2.6,5.5,5.7,5.7v11.4c0,.3,-.4,.9,-.7,1l-34,10.4c0,0,-.1,0,-.2,.1v-35.1c.7,-.1,1.4,-.2,2,-.4l32.9,-11.8v8.8Z" class="g3"/>
<path d="M141.1,2573.5c0,3,1.3,4.7,3.9,4.9c.4,0,.8,-.3,.8,-.7c.1,-.4,-.2,-.8,-.7,-.8c-1.2,-.1,-2.4,-.6,-2.4,-3.4v-17.7c0,-.4,-.3,-.8,-.8,-.8c-.4,0,-.8,.4,-.8,.8v17.7Z" class="g3"/>
<path d="M142.7,2552.7c0,.2,-.1,.4,-.2,.5c-.2,.2,-.4,.3,-.6,.3c-.2,0,-.4,-.1,-.5,-.3c-.2,-.1,-.3,-.3,-.3,-.5c0,-.2,.1,-.4,.3,-.6c.1,-.1,.3,-.2,.5,-.2c.2,0,.4,.1,.6,.2c.1,.2,.2,.4,.2,.6Z" class="g3"/>
<path d="M184.9,2577.6c0,.3,-.1,.4,-.2,.6c-.2,.2,-.4,.2,-.6,.2c-.2,0,-.4,0,-.5,-.2c-.2,-.2,-.3,-.3,-.3,-.6c0,-.2,.1,-.3,.3,-.5c.1,-.2,.3,-.2,.5,-.2c.2,0,.4,0,.6,.2c.1,.2,.2,.3,.2,.5Z" class="g3"/>
<path d="M173.6,2563.1c1.1,1,2.2,1.5,3.5,1.6c.1,0,.2,0,.4,0c1.6,0,2.7,-.7,3.4,-1.3c1.6,-1.5,2.1,-3.8,1.2,-5.7c-.3,-.6,-.6,-1.1,-1,-1.6c-.5,-.7,-18.5,-18.9,-19.4,-19.6c-.6,-.6,-1.3,-1,-2,-1.3c-.5,.4,-1,.8,-1.5,1.2c.1,0,.2,0,.3,0c.8,.2,1.5,.6,2.2,1.2c1.2,1.1,18.7,18.9,19.2,19.5c.3,.4,.6,.8,.8,1.3c.6,1.2,.2,2.8,-.9,3.8c-.5,.5,-1.4,1,-2.6,1c-.9,-.1,-1.7,-.5,-2.6,-1.2c-.4,-.4,-9.1,-9.1,-9.5,-9.5c-.3,-.3,-.7,-.6,-1.1,-.6c-1,0,-1,1.2,-1,1.6c0,2.7,0,14.4,0,21.7c-.1,6.5,-6.2,7.9,-11.3,7.9H147c-3,0,-7.1,-.5,-9.4,-2.8c-1.3,-1.3,-1.9,-3,-1.9,-5.1c.1,-7.3,.1,-19.3,0,-22c0,-.4,.1,-.8,-.3,-1.1c-.2,-.1,-.5,-.1,-.7,0c-.3,.1,-.4,.3,-.6,.5c-1.7,1.7,-8.9,9.1,-9,9.2c-.9,.9,-1.8,1.4,-2.8,1.4c-1.3,.1,-2.2,-.4,-2.7,-.9c-.7,-.7,-1,-1.4,-1.1,-2.4v-.2c0,-1.5,1.2,-2.7,2.2,-3.7v-.1c4.7,-4.7,17.5,-17.2,18.6,-18.2c.8,-.6,1.5,-1,2.3,-1.3c.2,0,.6,0,1.3,0c-.7,-.5,-1.3,-.9,-1.9,-1.4c-.9,.3,-1.8,.8,-2.7,1.5c-1.1,1,-14,13.6,-18.7,18.3v.1c-1.1,1.1,-2.7,2.6,-2.7,4.8v.3c.1,1.4,.7,2.5,1.7,3.4c1,1,2.3,1.5,3.8,1.4c1.8,-.1,3,-1.1,3.8,-1.9c.1,0,6.2,-6.4,8,-8.1c0,4.2,0,14,-.1,20.4c0,2.5,.8,4.6,2.4,6.2c2.1,2.1,5.8,3.3,10.5,3.3h4.7c8.2,0,12.8,-3.4,12.8,-9.5c0,-6.8,.1,-17.4,.1,-21c.5,.5,8.6,8.6,9,8.9Z" class="g3"/>
<path d="M150.5,2537.1c6.9,0,12.5,-5.6,12.5,-12.5c0,-6.9,-5.6,-12.5,-12.5,-12.5c-6.9,0,-12.5,5.6,-12.5,12.5c0,6.9,5.6,12.5,12.5,12.5Zm0,-23.4c6,0,11,4.9,11,10.9c0,6,-5,10.9,-11,10.9c-6,0,-10.9,-4.9,-10.9,-10.9c0,-6,4.9,-10.9,10.9,-10.9Z" class="g3"/>
<path clip-path="url(#cc)" d="M165.6,2533.4c-1,.6,-1.1,1.2,-1,1.6c.1,.4,.4,.9,1.3,1.2c.5,.1,.9,.1,1.4,.1c3.2,0,5.7,-2.8,5.8,-6.3c0,-.7,-.2,-1.5,-.4,-2.3c-.2,-1.2,-.5,-2.5,-.3,-3.7c.1,-.8,.4,-1.4,.8,-1.8c0,.3,0,.6,0,.8c0,7.8,5.6,14.1,12.5,14.1c6.9,0,12.5,-6.3,12.5,-14.1c0,-.2,0,-.5,-.1,-.8c.4,.4,.7,1,.8,1.8c.2,1.2,0,2.5,-.3,3.7c-.2,.8,-.3,1.6,-.3,2.3c0,3.5,2.6,6.3,5.8,6.3c.4,0,.9,0,1.3,-.1c1,-.3,1.3,-.8,1.4,-1.2c0,-.4,-.1,-1,-1,-1.6c-.9,-.5,-1.5,-1.2,-1.8,-1.9c-1.1,-2,-.2,-3.9,.9,-6.2c1,-2.1,2.2,-4.5,1.3,-7.3c-.7,-2.2,-2.9,-3.5,-6,-3.5c-1.4,0,-2.9,.3,-4.1,.8c-2.3,-3.8,-6.1,-6.3,-10.4,-6.3c-4.4,0,-8.2,2.5,-10.4,6.3c-1.3,-.5,-2.8,-.8,-4.2,-.8c-3,0,-5.2,1.3,-5.9,3.5c-.9,2.8,.2,5.2,1.3,7.3c1,2.3,1.9,4.2,.9,6.2c-.3,.7,-1,1.4,-1.8,1.9ZM200.2,2516c1.4,0,3.8,.3,4.5,2.5c.7,2.2,-.2,4.1,-1.2,6.2c-1.1,2.3,-2.3,4.8,-.9,7.5c.4,.9,1.2,1.8,2.3,2.5c-.3,0,-.6,0,-.8,0c-2.3,0,-4.2,-2.1,-4.2,-4.8c-.1,-.4,.1,-1.1,.2,-1.9c.3,-1.2,.6,-2.8,.4,-4.3c-.3,-1.8,-1.3,-3,-2.5,-3.2c-.3,-1.4,-.7,-2.7,-1.2,-3.9c1,-.3,2.3,-.6,3.4,-.6Zm-14.5,-5.4c6,0,10.9,5.6,10.9,12.4c0,6.9,-4.9,12.5,-10.9,12.5c-6.1,0,-11,-5.6,-11,-12.5c0,-6.8,4.9,-12.4,11,-12.4Zm-17.8,14.1c-1,-2.1,-1.9,-4,-1.2,-6.2c.7,-2.2,3,-2.5,4.4,-2.5c1.2,0,2.4,.3,3.5,.6c-.6,1.2,-1,2.5,-1.2,3.9c-1.3,.2,-2.3,1.4,-2.5,3.2c-.3,1.5,.1,3.1,.3,4.3c.2,.8,.3,1.5,.3,1.9c-.1,3,-2.3,5.2,-5,4.8c1,-.7,1.8,-1.6,2.3,-2.5c1.4,-2.7,.2,-5.2,-.9,-7.5Z" class="g3"/>
<path d="M175.6,2534.9c-1.1,.3,-2,.8,-2.9,1.6c-.4,.4,-2.2,2.1,-4.4,4.3c.3,.3,.7,.7,1.1,1.1c2.2,-2.2,3.9,-3.9,4.3,-4.2c.7,-.6,1.5,-1,2.3,-1.3c.3,0,1.1,0,2.4,-.1c-.7,-.4,-1.3,-.9,-1.9,-1.5c-.5,0,-.8,.1,-.9,.1Z" class="g3"/>
<path d="M216.5,2557.7c-.3,-.6,-.6,-1.1,-1,-1.6c-.5,-.7,-17.5,-18.6,-18.6,-19.6c-.7,-.7,-1.5,-1.1,-2.3,-1.4c-.5,.4,-1,.9,-1.6,1.2c.3,.1,.5,.1,.7,.1c.8,.2,1.5,.6,2.2,1.2c1,.9,17.7,18.7,18.4,19.5c.3,.4,.6,.8,.8,1.3c.6,1.2,.2,2.8,-.9,3.8c-.5,.5,-1.4,1,-2.6,1c-.9,-.1,-1.8,-.5,-2.6,-1.2c-.4,-.4,-4.6,-4.5,-7.1,-7c-1.1,-1.2,-2.1,-2.1,-2.4,-2.5c-.3,-.3,-.7,-.6,-1.1,-.6c-1,0,-1,1.2,-1,1.6c0,2.7,0,14.4,-.1,21.7c0,6.5,-6.1,7.9,-11.2,7.9h-4.7c-3,0,-7.1,-.5,-9.4,-2.8c-1.3,-1.3,-1.9,-3,-1.9,-5.1c0,-3.9,0,-8.9,0,-13.2c-.4,-.5,-.9,-1,-1.5,-1.6c0,4.7,0,10.5,-.1,14.8c0,2.5,.8,4.6,2.3,6.2c2.2,2.1,5.9,3.3,10.6,3.3h4.7c8.2,0,12.8,-3.4,12.8,-9.5c0,-6.8,.1,-17.4,.1,-21c.4,.5,1.1,1.1,1.8,1.9c3.7,3.6,6.8,6.7,7.1,7c1.2,1,2.3,1.5,3.6,1.6c.1,0,.2,0,.3,0c1.7,0,2.8,-.7,3.5,-1.3c1.6,-1.5,2.1,-3.8,1.2,-5.7Z" class="g3"/>
<path d="M177.5,2566.4c-.2,0,-.3,0,-.5,0c-.2,0,-.5,-.1,-.7,-.1v7.2c0,3,1.3,4.7,3.8,4.9q.1,0,.1,0c.4,0,.7,-.3,.8,-.7c0,-.4,-.3,-.8,-.7,-.8c-1.2,-.1,-2.4,-.6,-2.4,-3.4v-7.1c-.2,0,-.3,0,-.4,0Z" class="g3"/>
<path clip-path="url(#cd)" d="M200.3,2487.3H184.2v-26.1h16.1v26.1ZM168,2472.4h6.2v14.9H168v-14.9Zm-8.7,0h6.3v14.9h-6.3v-14.9Zm14.9,-2.5H159.3v-2.4h14.9v2.4ZM151.9,2460v-18.6c0,-.7,-.6,-1.3,-1.3,-1.3h-.7l16.9,-10.9l16.9,10.9h-.8c-.6,0,-1.2,.6,-1.2,1.3v45.9h-5v-21.1c0,-.7,-.5,-1.2,-1.2,-1.2H158.1c-.7,0,-1.2,.5,-1.2,1.2v21.1h-5V2460Zm-18.6,1.2h16.1v26.1H133.3v-26.1ZM132,2450.1h17.4v8.7H132v-8.7Zm69.6,0v8.7H184.2v-8.7h17.4Zm-33.6,-32l8.6,2.2l-8.6,2.1v-4.3Zm34.8,29.5H184.2v-5h3.7c.6,0,1,-.4,1.2,-.9c.2,-.5,-.1,-1.1,-.5,-1.4L168,2427v-2.1l14,-3.4c.6,-.2,.9,-.7,.9,-1.2c0,-.6,-.3,-1.1,-.9,-1.2l-14.9,-3.8c-.4,-.1,-.8,0,-1.1,.2c-.3,.3,-.4,.6,-.4,1V2427L145,2440.3c-.5,.3,-.7,.9,-.5,1.4c.1,.5,.6,.9,1.2,.9h3.7v5H130.8c-.7,0,-1.3,.5,-1.3,1.2V2460c0,.7,.6,1.2,1.3,1.2v27.4c0,.7,.5,1.2,1.2,1.2h69.6c.7,0,1.2,-.5,1.2,-1.2v-27.4c.7,0,1.3,-.5,1.3,-1.2v-11.2c0,-.7,-.6,-1.2,-1.3,-1.2Z" class="g3"/>
<path d="M166.8,2442.6c4.8,0,8.7,3.9,8.7,8.7c0,4.8,-3.9,8.7,-8.7,8.7c-4.8,0,-8.7,-3.9,-8.7,-8.7c0,-4.8,3.9,-8.7,8.7,-8.7Zm0,19.9c6.2,0,11.2,-5,11.2,-11.2c0,-6.2,-5,-11.2,-11.2,-11.2c-6.2,0,-11.2,5,-11.2,11.2c0,6.2,5,11.2,11.2,11.2Z" class="g3"/>
<path d="M163.1,2455c.2,0,.4,0,.7,-.2l3.7,-2.5c.3,-.2,.5,-.6,.5,-1v-6.2c0,-.7,-.5,-1.2,-1.2,-1.2c-.7,0,-1.2,.5,-1.2,1.2v5.5l-3.2,2.2c-.6,.3,-.7,1.1,-.4,1.7c.3,.3,.7,.5,1.1,.5Z" class="g3"/>
<path d="M144.4,2472.4h-6.2v-6.2h6.2v6.2Zm1.3,-8.7H137c-.7,0,-1.3,.6,-1.3,1.3v8.7c0,.6,.6,1.2,1.3,1.2h8.7c.7,0,1.2,-.6,1.2,-1.2V2465c0,-.7,-.5,-1.3,-1.2,-1.3Z" class="g3"/>
<path d="M189.2,2466.2h6.2v6.2h-6.2v-6.2Zm-1.3,8.7h8.7c.7,0,1.2,-.6,1.2,-1.2V2465c0,-.7,-.5,-1.3,-1.2,-1.3h-8.7c-.7,0,-1.2,.6,-1.2,1.3v8.7c0,.6,.5,1.2,1.2,1.2Z" class="g3"/>
<path clip-path="url(#ce)" d="M164.4,2699.9c-.3,0,-.6,.2,-.9,.5l-9.3,9.3l-6.2,-6.1c-.3,-.3,-.8,-.3,-1.1,0c-.3,.3,-.3,.8,0,1.1l5.8,5.7H136.5c-1.9,0,-3.3,1.4,-3.3,3.2v22.1c0,1.8,1.4,3.2,3.3,3.2h40.4c1.8,0,3.3,-1.4,3.3,-3.2v-22.1c0,-1.8,-1.5,-3.2,-3.3,-3.2H155.6l9,-9c.4,-.4,.5,-1,.2,-1.3c-.1,-.1,-.2,-.2,-.4,-.2Zm-24.3,13.7h25.5c2.1,0,3.7,1.7,3.7,3.7V2732c0,2,-1.6,3.7,-3.7,3.7H140.1c-2,0,-3.7,-1.7,-3.7,-3.7v-14.7c0,-2,1.7,-3.7,3.7,-3.7Zm34.2,6.3c.3,0,.6,0,.9,.1c.2,.1,.5,.3,.7,.5c.2,.2,.3,.4,.4,.7c.1,.2,.2,.5,.2,.8c0,.3,-.1,.5,-.2,.8c-.1,.3,-.2,.5,-.4,.7c-.2,.2,-.5,.4,-.7,.5c-.3,.1,-.6,.1,-.9,.1c-.2,0,-.5,0,-.8,-.1c-.2,-.1,-.5,-.3,-.7,-.5c-.2,-.2,-.3,-.4,-.4,-.7c-.1,-.3,-.2,-.5,-.2,-.8c0,-.3,.1,-.6,.2,-.8c.1,-.3,.2,-.5,.4,-.7c.2,-.2,.5,-.4,.7,-.5c.3,-.1,.6,-.1,.8,-.1Zm0,5.3c.3,0,.6,0,.9,.1c.2,.1,.5,.3,.7,.5c.2,.2,.3,.4,.4,.7c.1,.2,.2,.5,.2,.8c0,.3,-.1,.6,-.2,.8c-.1,.3,-.2,.5,-.4,.7c-.2,.2,-.5,.4,-.7,.5c-.3,.1,-.6,.1,-.9,.1c-.2,0,-.5,0,-.8,-.1c-.2,-.1,-.5,-.3,-.7,-.5c-.2,-.2,-.3,-.4,-.4,-.7c-.1,-.2,-.2,-.5,-.2,-.8c0,-.3,.1,-.6,.2,-.8c.1,-.3,.2,-.5,.4,-.7c.2,-.2,.5,-.4,.7,-.5c.3,-.1,.6,-.1,.8,-.1Z" class="g4"/>
<path d="M168.9,2847.6L143.4,2846l1.9,-30.1l25.5,1.7l-1.9,30Z" class="g0"/>
<path clip-path="url(#cf)" d="M168.9,2847.6v-.1l-25.3,-1.6l1.8,-29.9l25.2,1.7l-1.8,29.9h.1v-.1v.1h.1l1.9,-30q0,-.1,-.1,-.1c0,0,0,-.1,0,-.1l-25.5,-1.6q-.1,0,-.1,.1l-1.9,30.1c0,0,.1,.1,.1,.1l25.5,1.7c0,0,.1,-.1,.1,-.1v-.1h-.1Z" class="g4"/>
<path d="M147.8,2826.2c-.1,.6,-.6,1,-1.2,1c-.5,-.1,-1,-.6,-.9,-1.2c0,-.6,.5,-1,1.1,-1c.6,0,1,.6,1,1.2Z" class="g0"/>
<path d="M147.8,2826.2l-.1,-.1c-.1,.6,-.5,1,-1,1v-.1c-.5,0,-.9,-.4,-.9,-.9c0,0,0,-.1,0,-.1c0,-.5,.4,-.9,.9,-.9c0,0,.1,0,.1,0c.5,.1,.9,.5,.9,1l.1,.1h.1q0,-.1,0,-.1c0,-.6,-.5,-1.2,-1.1,-1.2c0,0,-.1,0,-.1,0c-.6,0,-1.1,.5,-1.2,1.1c0,0,0,.1,0,.1c0,.6,.5,1.1,1.1,1.2q.1,0,.1,0c.6,0,1.1,-.5,1.2,-1.1h-.1Z" class="g4"/>
<path d="M147.6,2829.3c-.1,.6,-.6,1.1,-1.1,1.1c-.6,-.1,-1.1,-.6,-1,-1.2c0,-.6,.5,-1,1.1,-1c.6,0,1,.5,1,1.1Z" class="g0"/>
<path d="M147.6,2829.3h-.1c-.1,.5,-.5,.9,-1,.9c-.5,0,-.9,-.4,-.9,-.9c0,0,0,-.1,0,-.1c0,-.5,.4,-.9,.9,-.9c0,0,.1,0,.1,0c.5,0,.9,.5,.9,1h.1l.1,.1q0,-.1,0,-.1c0,-.7,-.5,-1.2,-1.1,-1.2c0,0,-.1,0,-.1,0c-.6,0,-1.1,.5,-1.2,1.1c0,0,0,.1,0,.1c0,.6,.5,1.1,1.1,1.2q.1,0,.1,0c.6,0,1.2,-.5,1.2,-1.1l-.1,-.1Z" class="g4"/>
<path d="M148.2,2819.8c-.1,.6,-.6,1.1,-1.2,1c-.5,0,-1,-.5,-1,-1.1c.1,-.6,.6,-1.1,1.2,-1c.6,0,1,.5,1,1.1Z" class="g4"/>
<path d="M148,2823c-.1,.6,-.6,1.1,-1.2,1c-.5,0,-1,-.5,-.9,-1.1c0,-.6,.5,-1.1,1.1,-1c.6,0,1,.5,1,1.1Z" class="g4"/>
<path d="M147.4,2832.5c-.1,.6,-.6,1,-1.1,1c-.6,-.1,-1.1,-.6,-1,-1.2c0,-.6,.5,-1,1.1,-1c.6,.1,1,.6,1,1.2Z" class="g0"/>
<path d="M147.4,2832.5h-.1c-.1,.5,-.5,.9,-1,.9c-.5,-.1,-.9,-.5,-.9,-1v-.1c0,-.5,.4,-.9,.9,-.9c0,0,.1,0,.1,0c.5,.1,.9,.5,.9,1v.1h.2c0,0,0,-.1,0,-.1c0,-.6,-.5,-1.2,-1.1,-1.2c0,0,-.1,0,-.1,0c-.6,0,-1.1,.5,-1.1,1.1q-.1,.1,-.1,.1c0,.6,.5,1.2,1.2,1.2c.6,0,1.2,-.5,1.2,-1.1h-.1Z" class="g4"/>
<path d="M147.2,2835.8c-.1,.6,-.6,1,-1.1,1c-.6,0,-1.1,-.6,-1,-1.2c0,-.6,.5,-1,1.1,-1c.6,.1,1,.6,1,1.2Z" class="g0"/>
<path d="M147.2,2835.8h-.1c-.1,.5,-.5,.9,-1,.9c-.5,-.1,-.9,-.5,-.9,-1c0,-.6,.4,-1,.9,-1c0,0,.1,0,.1,.1c.5,0,.9,.4,.9,.9c0,0,0,.1,0,.1h.2c0,0,0,-.1,0,-.1c0,-.6,-.5,-1.1,-1.1,-1.2c0,0,-.1,0,-.1,0c-.6,0,-1.1,.5,-1.2,1.1q0,.1,0,.1c0,.6,.5,1.2,1.1,1.2q.1,0,.1,0c.6,0,1.2,-.5,1.2,-1.1h-.1Z" class="g4"/>
<path d="M147,2839c-.1,.6,-.6,1.1,-1.1,1c-.6,0,-1.1,-.5,-1,-1.1c0,-.6,.5,-1.1,1.1,-1c.6,0,1,.5,1,1.1Z" class="g0"/>
<path d="M147,2839h-.1c-.1,.5,-.5,.9,-1,.9c-.5,0,-.9,-.4,-.9,-.9q0,-.1,0,-.1c0,-.5,.4,-.9,.9,-.9c0,0,.1,0,.1,0c.5,0,.9,.5,.9,1h.2c0,-.7,-.5,-1.2,-1.1,-1.2c0,0,-.1,0,-.1,0c-.6,0,-1.1,.4,-1.2,1.1v.1c0,.6,.5,1.1,1.1,1.2q.1,0,.1,0c.6,0,1.2,-.5,1.2,-1.2H147Z" class="g4"/>
<path d="M146.8,2842.5c-.1,.6,-.6,1,-1.2,1c-.5,-.1,-1,-.6,-.9,-1.2c0,-.6,.5,-1,1.1,-1c.6,0,1,.6,1,1.2Z" class="g0"/>
<path d="M146.8,2842.5h-.2c0,.5,-.4,.9,-.9,.9h-.1c-.5,-.1,-.8,-.5,-.8,-1v-.1c0,-.5,.4,-.9,.9,-.9h.1c.5,.1,.9,.5,.9,1c0,0,-.1,0,-.1,.1h.3q0,-.1,0,-.1c0,-.6,-.5,-1.2,-1.1,-1.2c0,0,-.1,0,-.1,0c-.6,0,-1.1,.5,-1.2,1.1c0,0,0,.1,0,.1c0,.6,.5,1.2,1.1,1.2q.1,0,.1,0c.6,0,1.1,-.5,1.2,-1.1h-.1Z" class="g4"/>
<path d="M167.7,2821.3l-17.9,-1.1v-.5l17.9,1.2v.4Z" class="g4"/>
<path d="M167.6,2822.6l-17.9,-1.1v-.5l17.9,1.2v.4Z" class="g4"/>
<path d="M167.5,2824.1l-17.9,-1.2v-.4l18,1.1l-.1,.5Z" class="g4"/>
<path d="M167.5,2825.3l-18,-1.1v-.4l18,1.1v.4Z" class="g4"/>
<path d="M167.4,2826.6l-18,-1.2l.1,-.4l17.9,1.1v.5Z" class="g4"/>
<path d="M167.3,2827.9l-17.9,-1.2v-.4l17.9,1.2v.4Z" class="g4"/>
<path d="M167.2,2829.3l-17.9,-1.1v-.5l17.9,1.2v.4Z" class="g4"/>
<path d="M167.1,2830.6l-17.9,-1.2v-.4l18,1.2l-.1,.4Z" class="g4"/>
<path d="M167,2831.9l-17.9,-1.1v-.4l18,1.1l-.1,.4Z" class="g4"/>
<path d="M167,2833.3l-18,-1.2v-.4l18,1.1v.5Z" class="g4"/>
<path d="M166.9,2834.7l-18,-1.2l.1,-.4l17.9,1.2v.4Z" class="g4"/>
<path d="M166.8,2836l-17.9,-1.2v-.4l17.9,1.1v.5Z" class="g4"/>
<path d="M166.7,2837.2L148.8,2836v-.4l17.9,1.2v.4Z" class="g4"/>
<path d="M166.6,2838.5l-17.9,-1.2v-.4l18,1.2l-.1,.4Z" class="g4"/>
<path d="M166.6,2840l-18,-1.2v-.4l18,1.1v.5Z" class="g4"/>
<path d="M166.5,2841.2l-18,-1.1l.1,-.5l17.9,1.2v.4Z" class="g4"/>
<path d="M166.4,2842.5l-18,-1.1l.1,-.5l17.9,1.2v.4Z" class="g4"/>
<path d="M166.3,2843.8l-17.9,-1.2v-.4l17.9,1.2v.4Z" class="g4"/>
<path d="M163.2,2854.6L137.8,2853l1.8,-30.1l20.7,1.3l4.5,4.5l-1.6,25.9Z" class="g0"/>
<path d="M163.2,2854.6v-.1l-25.3,-1.6l1.8,-29.9l20.5,1.4l4.5,4.3l-1.6,25.9h.1v-.1v.1h.1l1.6,-25.9c0,0,0,-.1,0,-.1l-4.6,-4.5l-20.7,-1.3c0,0,-.1,0,-.1,.1l-1.9,30.1c0,0,.1,.1,.1,.1l25.5,1.6c0,0,.1,0,.1,0v-.1h-.1Z" class="g4"/>
<path d="M142.1,2833.1c0,.6,-.5,1.1,-1.1,1.1c-.6,-.1,-1.1,-.6,-1,-1.2c0,-.6,.5,-1,1.1,-1c.6,0,1,.5,1,1.1Z" class="g4"/>
<path d="M141.9,2836.3c0,.6,-.5,1.1,-1.1,1c-.6,0,-1.1,-.5,-1,-1.1c0,-.6,.5,-1.1,1.1,-1c.6,0,1,.5,1,1.1Z" class="g4"/>
<path d="M142.5,2826.8c-.1,.6,-.6,1.1,-1.1,1c-.6,0,-1.1,-.5,-1,-1.1c0,-.6,.5,-1.1,1.1,-1c.6,0,1,.5,1,1.1Z" class="g4"/>
<path d="M142.3,2830c0,.6,-.6,1.1,-1.1,1c-.6,0,-1.1,-.5,-1,-1.1c0,-.6,.5,-1.1,1.1,-1c.6,0,1,.5,1,1.1Z" class="g4"/>
<path d="M141.7,2839.5c0,.6,-.5,1,-1.1,1c-.6,-.1,-1,-.6,-1,-1.2c0,-.6,.5,-1,1.1,-1c.6,0,1,.6,1,1.2Z" class="g4"/>
<path d="M141.5,2842.8c0,.6,-.5,1,-1.1,1c-.6,-.1,-1.1,-.6,-1,-1.2c0,-.6,.5,-1,1.1,-1c.6,.1,1,.6,1,1.2Z" class="g4"/>
<path d="M141.3,2846c0,.6,-.5,1.1,-1.1,1c-.6,0,-1.1,-.5,-1,-1.1c0,-.6,.5,-1.1,1.1,-1c.6,0,1,.5,1,1.1Z" class="g4"/>
<path d="M141.1,2849.5c0,.5,-.6,1,-1.1,1c-.6,-.1,-1.1,-.6,-1,-1.2c0,-.6,.5,-1,1.1,-1c.6,0,1,.6,1,1.2Z" class="g4"/>
<path d="M162,2828.3l-17.9,-1.2v-.4l18,1.2l-.1,.4Z" class="g4"/>
<path d="M161.9,2829.6L144,2828.5v-.5l18,1.2l-.1,.4Z" class="g4"/>
<path d="M161.9,2831.1l-18,-1.2v-.4l18,1.1v.5Z" class="g4"/>
<path d="M161.8,2832.3l-18,-1.1l.1,-.5l17.9,1.2v.4Z" class="g4"/>
<path d="M161.7,2833.6l-17.9,-1.2v-.4l17.9,1.1v.5Z" class="g4"/>
<path d="M161.6,2834.9l-17.9,-1.2v-.4l17.9,1.1v.5Z" class="g4"/>
<path d="M161.5,2836.3l-17.9,-1.2v-.4l18,1.2l-.1,.4Z" class="g4"/>
<path d="M161.5,2837.6l-18,-1.2v-.4l18,1.2v.4Z" class="g4"/>
<path d="M161.4,2838.9l-18,-1.1v-.5l18,1.2v.4Z" class="g4"/>
<path d="M161.3,2840.2l-18,-1.1l.1,-.4l17.9,1.1v.4Z" class="g4"/>
<path d="M161.2,2841.7l-17.9,-1.2v-.4l17.9,1.2v.4Z" class="g4"/>
<path d="M161.1,2843l-17.9,-1.2v-.4l17.9,1.1v.5Z" class="g4"/>
<path d="M161,2844.2L143.1,2843v-.4l18,1.2l-.1,.4Z" class="g4"/>
<path d="M161,2845.5l-18,-1.2v-.4l18,1.2v.4Z" class="g4"/>
<path d="M160.9,2846.9l-18,-1.1l.1,-.4l17.9,1.1v.4Z" class="g4"/>
<path d="M160.8,2848.2l-18,-1.2l.1,-.4l17.9,1.2v.4Z" class="g4"/>
<path d="M160.7,2849.5l-17.9,-1.1v-.5l17.9,1.2v.4Z" class="g4"/>
<path d="M160.6,2850.8l-17.9,-1.2v-.4l18,1.2l-.1,.4Z" class="g4"/>
<path d="M160.3,2824.2l4.5,4.5c0,0,-2.8,1.9,-4.9,1.6c.3,-.9,.4,-6.1,.4,-6.1Z" class="g0"/>
<path d="M160.3,2824.2l-.1,.1l4.5,4.5l.1,-.1v-.1h-.1c-.1,.1,-.7,.5,-1.5,.9c-.9,.3,-1.9,.7,-2.8,.7c-.2,0,-.3,0,-.5,-.1v.2h.1c0,-.1,.1,-.3,.1,-.5c.1,-.8,.2,-2.2,.2,-3.4c.1,-1.2,.1,-2.2,.1,-2.2h-.1l-.1,.1l.1,-.1h-.2c0,0,0,.1,0,.3c0,.5,0,1.7,-.1,2.9c0,.6,0,1.3,-.1,1.8c0,.2,0,.4,0,.6c-.1,.2,-.1,.3,-.1,.4q0,.1,0,.1q0,.1,.1,.1c.1,0,.3,0,.5,0c1.1,0,2.2,-.4,3,-.8c.9,-.4,1.5,-.8,1.5,-.8c0,0,0,-.1,0,-.1c0,0,0,-.1,0,-.1l-4.6,-4.5h-.1c0,0,-.1,.1,-.1,.1h.2Z" class="g4"/>
<path d="M158.2,2881.1c1.2,0,2.2,-1,2.2,-2.2v-3.4c0,-1.2,-1,-2.2,-2.2,-2.2h-3.5c-1.3,0,-2.3,1,-2.3,2.2v3.4c0,1.2,1,2.2,2.3,2.2h3.5Z" class="g4"/>
<path d="M147.1,2882.2c-.9,0,-1.6,.7,-1.6,1.6v2.4c0,.9,.7,1.6,1.6,1.6h2.6c.8,0,1.6,-.7,1.6,-1.6v-2.4c0,-.9,-.8,-1.6,-1.6,-1.6h-2.6Z" class="g4"/>
<path d="M166.2,2884.4c0,-1.2,-1.1,-2.2,-2.3,-2.2h-9.2c-1.3,0,-2.3,1,-2.3,2.2v8.9c0,1.2,1,2.2,2.3,2.2h9.2c1.2,0,2.3,-1,2.3,-2.2v-8.9Zm-2.7,2.8c-.9,.4,-1.9,1,-2.6,1.6c-1.6,1.2,-2.8,2.7,-2.9,2.7c-.1,.1,-.2,.2,-.4,.2h-.1c-.2,0,-.3,-.2,-.4,-.3c-.8,-1.5,-1.2,-2.1,-2.2,-2.8c-.2,-.2,-.3,-.6,-.1,-.8c.2,-.2,.6,-.3,.8,-.1c1,.8,1.4,1.4,2.1,2.5c.5,-.6,1.4,-1.5,2.5,-2.3c.7,-.6,1.7,-1.3,2.8,-1.7c.3,-.2,.7,0,.8,.3c.2,.2,0,.5,-.3,.7Z" class="g4"/>
<path d="M161.6,2866.7H145.5c-1.3,0,-2.3,1,-2.3,2.2V2900c0,1.2,1,2.2,2.3,2.2h16.1c1.2,0,2.2,-1,2.2,-2.2v-3.4H144.4v-24.4h18.3v8.9h1.2v-12.2c0,-1.2,-1.1,-2.2,-2.3,-2.2Zm-10.3,32.2h4.5c.4,0,.6,.2,.6,.5c0,.3,-.2,.6,-.6,.6h-4.5c-.4,0,-.6,-.3,-.6,-.6c0,-.3,.2,-.5,.6,-.5Zm0,-28.9c-.4,0,-.6,-.2,-.6,-.6c0,-.3,.2,-.5,.6,-.5c.3,0,.5,.2,.5,.5c0,.4,-.2,.6,-.5,.6Zm2.3,0c-.4,0,-.6,-.2,-.6,-.6c0,-.3,.2,-.5,.6,-.5c.3,0,.5,.2,.5,.5c0,.4,-.2,.6,-.5,.6Zm2.2,0c-.3,0,-.5,-.2,-.5,-.6c0,-.3,.2,-.5,.5,-.5c.4,0,.6,.2,.6,.5c0,.4,-.2,.6,-.6,.6Z" class="g4"/>
<path clip-path="url(#cg)" d="M175.4,2938.5c-.2,-.3,-.5,-.4,-.8,-.4H139.1c-.4,0,-.7,.1,-.9,.4c-.2,.3,-.3,.6,-.3,.9l2.7,20.8c0,.3,.2,.5,.4,.7c.2,.2,.4,.3,.7,.3h30.2c.3,0,.6,-.1,.8,-.3c.2,-.2,.3,-.4,.4,-.7l2.6,-20.8c.1,-.3,0,-.6,-.3,-.9Zm-12.2,11.8h-5.5v5.6H156v-5.6h-5.5v-1.8H156v-5.6h1.7v5.6h5.5v1.8Z" class="g4"/>
<path d="M173.3,2934.4c0,-.3,-.1,-.6,-.2,-.8c-.1,-.3,-.2,-.5,-.4,-.7c-.2,-.2,-.4,-.3,-.7,-.5c-.2,-.1,-.5,-.1,-.8,-.1H154c-.3,0,-.6,-.2,-.8,-.5l-1.3,-2.7c-.2,-.3,-.5,-.6,-.8,-.8c-.3,-.2,-.7,-.3,-1,-.3h-7.7c-.3,0,-.5,.1,-.8,.2c-.2,.1,-.4,.2,-.6,.4c-.2,.2,-.4,.4,-.5,.7c-.1,.3,-.1,.5,-.1,.8v6.2h32.9v-1.9Z" class="g4"/>
<path clip-path="url(#ch)" d="M138.9,2753.3c-2.1,0,-3.8,1.6,-3.8,3.7c0,2.1,1.7,3.8,3.8,3.8c2.1,0,3.7,-1.7,3.7,-3.8c0,-2.1,-1.6,-3.7,-3.7,-3.7Zm5.6,2.8c-.5,0,-.9,.4,-.9,.9c0,.5,.4,1,.9,1c.6,0,1,-.5,1,-1c0,-.5,-.4,-.9,-1,-.9Zm3.8,0c-.5,0,-.9,.4,-.9,.9c0,.5,.4,1,.9,1c.6,0,1,-.5,1,-1c0,-.5,-.4,-.9,-1,-.9Zm3.8,0c-.5,0,-.9,.4,-.9,.9c0,.5,.4,1,.9,1c.5,0,1,-.5,1,-1c0,-.5,-.5,-.9,-1,-.9Zm3.8,0c-.5,0,-.9,.4,-.9,.9c0,.5,.4,1,.9,1c.5,0,1,-.5,1,-1c0,-.5,-.5,-.9,-1,-.9Zm3.8,0c-.5,0,-1,.4,-1,.9c0,.5,.5,1,1,1c.5,0,.9,-.5,.9,-1c0,-.5,-.4,-.9,-.9,-.9Zm3.8,0c-.5,0,-1,.4,-1,.9c0,.5,.5,1,1,1c.5,0,.9,-.5,.9,-1c0,-.5,-.4,-.9,-.9,-.9Zm3.8,0c-.6,0,-1,.4,-1,.9c0,.5,.4,1,1,1c.5,0,.9,-.5,.9,-1c0,-.5,-.4,-.9,-.9,-.9Zm3.8,0c-.6,0,-1,.4,-1,.9c0,.5,.4,1,1,1c.5,0,.9,-.5,.9,-1c0,-.5,-.4,-.9,-.9,-.9Zm3.7,0c-.5,0,-.9,.4,-.9,.9c0,.5,.4,1,.9,1c.6,0,1,-.5,1,-1c0,-.5,-.4,-.9,-1,-.9Zm0,3.7c-.5,0,-.9,.5,-.9,1c0,.5,.4,.9,.9,.9c.6,0,1,-.4,1,-.9c0,-.5,-.4,-1,-1,-1Zm-18.9,3.8c-3.1,0,-5.7,2.5,-5.7,5.6c0,2.8,4.4,10,4.9,10.8c.2,.3,.5,.5,.8,.5c.3,0,.6,-.2,.8,-.5c.5,-.8,4.9,-8,4.9,-10.8c0,-3.1,-2.6,-5.6,-5.7,-5.6Zm18.9,0c-.5,0,-.9,.4,-.9,.9c0,.5,.4,1,.9,1c.6,0,1,-.5,1,-1c0,-.5,-.4,-.9,-1,-.9Zm0,2.8c-2,0,-3.7,1.7,-3.7,3.8c0,2,1.7,3.7,3.7,3.7c2.1,0,3.8,-1.7,3.8,-3.7c0,-2.1,-1.7,-3.8,-3.8,-3.8Zm-18.9,.9c1.1,0,1.9,.9,1.9,1.9c0,1.1,-.8,1.9,-1.9,1.9c-1,0,-1.9,-.8,-1.9,-1.9c0,-1,.9,-1.9,1.9,-1.9Zm18.9,7.5c-.5,0,-.9,.5,-.9,1c0,.5,.4,.9,.9,.9c.6,0,1,-.4,1,-.9c0,-.5,-.4,-1,-1,-1Zm-37.8,3.8c-.6,0,-1,.4,-1,.9c0,.6,.4,1,1,1c.5,0,.9,-.4,.9,-1c0,-.5,-.4,-.9,-.9,-.9Zm3.8,0c-.6,0,-1,.4,-1,.9c0,.6,.4,1,1,1c.5,0,.9,-.4,.9,-1c0,-.5,-.4,-.9,-.9,-.9Zm3.7,0c-.5,0,-.9,.4,-.9,.9c0,.6,.4,1,.9,1c.6,0,1,-.4,1,-1c0,-.5,-.4,-.9,-1,-.9Zm3.8,0c-.5,0,-.9,.4,-.9,.9c0,.6,.4,1,.9,1c.6,0,1,-.4,1,-1c0,-.5,-.4,-.9,-1,-.9Zm3.8,0c-.5,0,-.9,.4,-.9,.9c0,.6,.4,1,.9,1c.5,0,1,-.4,1,-1c0,-.5,-.5,-.9,-1,-.9Zm7.6,0c-.5,0,-1,.4,-1,.9c0,.6,.5,1,1,1c.5,0,.9,-.4,.9,-1c0,-.5,-.4,-.9,-.9,-.9Zm3.8,0c-.5,0,-1,.4,-1,.9c0,.6,.5,1,1,1c.5,0,.9,-.4,.9,-1c0,-.5,-.4,-.9,-.9,-.9Zm3.8,0c-.6,0,-1,.4,-1,.9c0,.6,.4,1,1,1c.5,0,.9,-.4,.9,-1c0,-.5,-.4,-.9,-.9,-.9Zm3.8,0c-.6,0,-1,.4,-1,.9c0,.6,.4,1,1,1c.5,0,.9,-.4,.9,-1c0,-.5,-.4,-.9,-.9,-.9Zm3.7,0c-.5,0,-.9,.4,-.9,.9c0,.6,.4,1,.9,1c.6,0,1,-.4,1,-1c0,-.5,-.4,-.9,-1,-.9Zm-37.8,3.7c-.6,0,-1,.5,-1,1c0,.5,.4,.9,1,.9c.5,0,.9,-.4,.9,-.9c0,-.5,-.4,-1,-.9,-1Zm0,3.8c-.6,0,-1,.4,-1,.9c0,.6,.4,1,1,1c.5,0,.9,-.4,.9,-1c0,-.5,-.4,-.9,-.9,-.9Zm36.9,.9c-2.1,0,-3.8,1.7,-3.8,3.8c0,2.1,1.7,3.7,3.8,3.7c2.1,0,3.8,-1.6,3.8,-3.7c0,-2.1,-1.7,-3.8,-3.8,-3.8Zm-36.9,2.9c-.6,0,-1,.4,-1,.9c0,.5,.4,.9,1,.9c.5,0,.9,-.4,.9,-.9c0,-.5,-.4,-.9,-.9,-.9Zm3.8,0c-.6,0,-1,.4,-1,.9c0,.5,.4,.9,1,.9c.5,0,.9,-.4,.9,-.9c0,-.5,-.4,-.9,-.9,-.9Zm3.7,0c-.5,0,-.9,.4,-.9,.9c0,.5,.4,.9,.9,.9c.6,0,1,-.4,1,-.9c0,-.5,-.4,-.9,-1,-.9Zm3.8,0c-.5,0,-.9,.4,-.9,.9c0,.5,.4,.9,.9,.9c.6,0,1,-.4,1,-.9c0,-.5,-.4,-.9,-1,-.9Zm3.8,0c-.5,0,-.9,.4,-.9,.9c0,.5,.4,.9,.9,.9c.5,0,1,-.4,1,-.9c0,-.5,-.5,-.9,-1,-.9Zm3.8,0c-.5,0,-.9,.4,-.9,.9c0,.5,.4,.9,.9,.9c.5,0,1,-.4,1,-.9c0,-.5,-.5,-.9,-1,-.9Zm3.8,0c-.5,0,-1,.4,-1,.9c0,.5,.5,.9,1,.9c.5,0,.9,-.4,.9,-.9c0,-.5,-.4,-.9,-.9,-.9Zm3.8,0c-.5,0,-1,.4,-1,.9c0,.5,.5,.9,1,.9c.5,0,.9,-.4,.9,-.9c0,-.5,-.4,-.9,-.9,-.9Zm3.8,0c-.6,0,-1,.4,-1,.9c0,.5,.4,.9,1,.9c.5,0,.9,-.4,.9,-.9c0,-.5,-.4,-.9,-.9,-.9Z" class="g4"/>
<path clip-path="url(#ci)" d="M-8.4,3028.3H1300.8v493.1H-8.4V3028.3Z" class="g2"/>
<path d="M343,3259.5c5.7,0,10.3,-5.7,10.3,-12.6c0,-7,-1.5,-12.6,-10.3,-12.6c-8.8,0,-10.3,5.6,-10.3,12.6c0,6.9,4.6,12.6,10.3,12.6Z" class="g5"/>
<g clip-path="url(#cj)">
<path d="M323.5,3278.7c0,-.4,0,-.1,0,0Z" class="g5"/>
<path d="M362.5,3279.1c0,-.2,0,-.9,0,0Z" class="g5"/>
</g>
<path d="M362.4,3278.2c-.2,-12.1,-1.7,-15.6,-13.8,-17.8c0,0,-1.7,2.2,-5.6,2.2c-4,0,-5.7,-2.2,-5.7,-2.2c-11.9,2.2,-13.6,5.6,-13.8,17.4q0,1,0,.9c0,.2,0,.6,0,1.3c0,0,2.9,5.8,19.5,5.8c16.6,0,19.5,-5.8,19.5,-5.8c0,-.4,0,-.7,0,-.9c0,0,0,-.1,-.1,-.9Z" class="g5"/>
<path d="M920.2,3264.1c.5,-.1,1,-.2,1.5,-.2l-11.8,-5.5c-.6,.1,-1.1,.1,-1.7,.2l12,5.5Z" class="g5"/>
<path d="M906.7,3258.6c-.6,-.1,-1.1,-.1,-1.7,-.2l-11.8,5.5c.5,0,1,.1,1.5,.2l12,-5.5Z" class="g5"/>
<path d="M919.4,3245.6c0,-.8,-.1,-1.5,-.3,-2.3c-.1,-.8,-.3,-1.6,-.6,-2.3c-.3,-.7,-.7,-1.4,-1.1,-2.1c-.5,-.6,-1,-1.2,-1.5,-1.8c-.6,-.6,-1.2,-1.1,-1.8,-1.5c-.7,-.5,-1.4,-.8,-2.1,-1.1c-.7,-.3,-1.5,-.6,-2.2,-.7c-.8,-.2,-1.6,-.2,-2.4,-.2c-.7,0,-1.5,0,-2.3,.2c-.8,.1,-1.5,.4,-2.2,.7c-.8,.3,-1.4,.6,-2.1,1.1c-.7,.4,-1.3,.9,-1.8,1.5c-.6,.6,-1.1,1.2,-1.5,1.8c-.4,.7,-.8,1.4,-1.1,2.1c-.3,.7,-.5,1.5,-.7,2.3c-.1,.8,-.2,1.5,-.2,2.3c0,.8,.1,1.6,.2,2.4c.2,.8,.4,1.5,.7,2.3c.3,.7,.7,1.4,1.1,2.1c.4,.6,.9,1.2,1.5,1.8c.5,.5,1.1,1,1.8,1.5c.7,.4,1.3,.8,2.1,1.1c.7,.3,1.4,.5,2.2,.7c.8,.1,1.6,.2,2.3,.2c.8,0,1.6,-.1,2.4,-.2c.7,-.2,1.5,-.4,2.2,-.7c.7,-.3,1.4,-.7,2.1,-1.1c.6,-.5,1.2,-1,1.8,-1.5c.5,-.6,1,-1.2,1.5,-1.8c.4,-.7,.8,-1.4,1.1,-2.1c.3,-.8,.5,-1.5,.6,-2.3c.2,-.8,.3,-1.6,.3,-2.4Zm-18.6,6.2c0,-.1,0,-6.6,4.6,-8.1c-.4,-.3,-.8,-.6,-1.1,-1.1c-.3,-.5,-.5,-1,-.6,-1.5c-.1,-.6,-.1,-1.1,.1,-1.7c.1,-.5,.4,-1,.7,-1.4c.4,-.5,.8,-.8,1.3,-1c.5,-.3,1.1,-.4,1.6,-.4c.6,0,1.1,.1,1.6,.4c.5,.2,1,.5,1.3,1c.4,.4,.6,.9,.8,1.4c.1,.6,.2,1.1,.1,1.7c-.1,.5,-.3,1,-.6,1.5c-.3,.5,-.7,.8,-1.2,1.1c4.6,1.5,4.7,8,4.7,8.1c0,.2,-.1,.3,-.3,.4c-2,.8,-4.2,1.2,-6.4,1.2c-2.2,0,-4.3,-.4,-6.4,-1.2c-.2,-.1,-.3,-.2,-.2,-.4Z" class="g5"/>
<path d="M907.5,3243.4c.3,0,.5,0,.8,-.1c.2,-.1,.4,-.2,.7,-.3c.2,-.1,.4,-.3,.6,-.5c.1,-.2,.3,-.4,.4,-.6c.1,-.2,.2,-.5,.3,-.7c.1,-.3,.1,-.5,.1,-.8c0,-.3,-.1,-.5,-.1,-.8c-.1,-.2,-.2,-.4,-.3,-.7c-.2,-.2,-.3,-.4,-.5,-.6c-.2,-.2,-.4,-.3,-.6,-.4c-.2,-.2,-.5,-.3,-.7,-.3c-.3,-.1,-.5,-.1,-.8,-.1c-.2,0,-.5,0,-.7,.1c-.3,0,-.5,.1,-.7,.3c-.3,.1,-.5,.2,-.6,.4c-.2,.2,-.4,.4,-.5,.6c-.1,.3,-.2,.5,-.3,.7c-.1,.3,-.1,.5,-.1,.8c0,.3,0,.5,.1,.8c0,.2,.1,.5,.3,.7c.1,.2,.2,.4,.4,.6c.2,.2,.4,.4,.6,.5c.2,.1,.5,.2,.7,.3c.3,.1,.5,.1,.8,.1h.1Z" class="g5"/>
<path d="M913.3,3251.5c-.1,-1.3,-.7,-6.3,-4.6,-7.1v-.4l-.1,.4c-.8,-.2,-1.5,-.2,-2.3,0h-.1c-4,.8,-4.5,5.8,-4.6,7.1c1.9,.7,3.8,1,5.8,1c2,.1,4,-.3,5.9,-1Z" class="g5"/>
<path d="M892.4,3264.7c-.7,0,-1.4,0,-2,.2c-.6,.1,-1.3,.3,-1.9,.5c-.6,.3,-1.2,.6,-1.7,.9c-.6,.4,-1.1,.8,-1.6,1.3c-.5,.4,-.9,.9,-1.3,1.5c-.4,.5,-.7,1.1,-1,1.7c-.3,.6,-.5,1.2,-.7,1.9c-.1,.6,-.2,1.3,-.3,1.9c0,.7,0,1.4,.1,2c.1,.7,.3,1.3,.5,2c.2,.6,.4,1.2,.8,1.8c.3,.6,.7,1.1,1.1,1.6c.4,.5,.9,1,1.4,1.4c.5,.4,1.1,.8,1.7,1.1c.5,.3,1.1,.6,1.8,.8c.6,.2,1.3,.3,1.9,.4c.7,.1,1.3,.1,2,0c.6,0,1.3,-.1,1.9,-.3c.7,-.2,1.3,-.4,1.9,-.7c.6,-.3,1.1,-.7,1.6,-1.1c.6,-.4,1.1,-.8,1.5,-1.3c.4,-.5,.8,-1.1,1.2,-1.6c.3,-.6,.6,-1.2,.8,-1.8c.3,-.7,.4,-1.3,.5,-2c-.2,0,-.3,-.2,-.3,-.4c0,-.2,.2,-.4,.4,-.4c0,-.3,.1,-.6,.1,-.9c0,-.7,-.1,-1.4,-.2,-2c-.2,-.7,-.4,-1.4,-.6,-2c-.3,-.7,-.6,-1.3,-1,-1.8c-.4,-.6,-.8,-1.1,-1.3,-1.6c-.5,-.5,-1,-1,-1.6,-1.3c-.5,-.4,-1.1,-.8,-1.8,-1c-.6,-.3,-1.2,-.5,-1.9,-.6c-.7,-.2,-1.4,-.2,-2,-.2ZM898,3281c-1.8,.7,-3.7,1,-5.6,1.1c-2,-.1,-3.8,-.4,-5.6,-1.1c-.2,-.1,-.3,-.2,-.3,-.5c0,0,0,-5.6,4,-7c-.4,-.3,-.7,-.6,-1,-1c-.3,-.4,-.4,-.9,-.5,-1.4c0,-.5,0,-.9,.1,-1.4c.2,-.5,.4,-.9,.7,-1.3c.3,-.3,.7,-.6,1.2,-.8c.4,-.2,.9,-.3,1.4,-.3c.4,0,.9,.1,1.4,.3c.4,.2,.8,.5,1.1,.8c.3,.4,.5,.8,.7,1.3c.1,.5,.2,.9,.1,1.4c-.1,.5,-.2,1,-.5,1.4c-.2,.4,-.6,.7,-1,1c4,1.4,4,7,4,7c0,.2,0,.4,-.2,.5Z" class="g5"/>
<path d="M892.3,3273.2h.1c.2,0,.5,0,.7,-.1c.2,0,.4,-.1,.6,-.2c.2,-.2,.3,-.3,.5,-.5c.1,-.1,.3,-.3,.4,-.5c.1,-.2,.2,-.4,.2,-.6c.1,-.2,.1,-.4,.1,-.7c0,-.2,0,-.4,-.1,-.6c-.1,-.2,-.1,-.4,-.3,-.6c-.1,-.2,-.2,-.4,-.4,-.5c-.1,-.2,-.3,-.3,-.5,-.4c-.2,-.2,-.4,-.2,-.6,-.3c-.2,-.1,-.4,-.1,-.6,-.1c-.3,0,-.5,0,-.7,.1c-.2,.1,-.4,.1,-.6,.3c-.2,.1,-.4,.2,-.5,.4c-.2,.1,-.3,.3,-.4,.5c-.1,.2,-.2,.4,-.3,.6c0,.2,-.1,.4,-.1,.6c0,.3,.1,.5,.1,.7c.1,.2,.2,.4,.3,.6c.1,.2,.2,.4,.4,.5c.1,.2,.3,.3,.5,.5c.2,.1,.4,.2,.6,.2c.2,.1,.4,.1,.6,.1Z" class="g5"/>
<path d="M893.4,3274.2v-.4v.4c-.7,-.1,-1.4,-.1,-2,0l-.2,-.4l.1,.4c-3.4,.7,-3.9,4.9,-4,6.1c1.6,.6,3.3,.9,5,.9c1.8,0,3.4,-.3,5.1,-.9c-.1,-1.2,-.6,-5.4,-4,-6.1Z" class="g5"/>
<path d="M922.5,3264.7c-.7,0,-1.4,0,-2,.2c-.7,.1,-1.4,.3,-2,.6c-.6,.2,-1.2,.6,-1.8,.9c-.6,.4,-1.1,.9,-1.6,1.4c-.4,.5,-.9,1,-1.3,1.6c-.3,.5,-.7,1.1,-.9,1.8c-.3,.6,-.5,1.3,-.6,2c-.1,.6,-.2,1.3,-.2,2c0,.3,0,.6,0,.9h.1c.1,0,.2,0,.3,.1c.1,.1,.1,.2,.1,.3c0,.3,-.1,.4,-.4,.5c.1,.6,.3,1.3,.5,1.9c.3,.6,.6,1.2,.9,1.8c.3,.5,.7,1.1,1.2,1.6c.4,.5,.9,.9,1.4,1.3c.6,.4,1.1,.8,1.7,1.1c.6,.3,1.2,.5,1.9,.7c.6,.2,1.2,.3,1.9,.3c.6,.1,1.3,.1,2,0c.6,-.1,1.3,-.2,1.9,-.4c.6,-.2,1.2,-.5,1.8,-.8c.6,-.3,1.1,-.7,1.7,-1.1c.5,-.4,.9,-.9,1.4,-1.4c.4,-.5,.8,-1,1.1,-1.6c.3,-.6,.6,-1.2,.8,-1.8c.2,-.7,.3,-1.3,.4,-2c.1,-.6,.1,-1.3,.1,-2c0,-.6,-.1,-1.3,-.3,-1.9c-.1,-.7,-.4,-1.3,-.6,-1.9c-.3,-.6,-.7,-1.2,-1,-1.7c-.4,-.6,-.9,-1.1,-1.3,-1.5c-.5,-.5,-1,-.9,-1.6,-1.3c-.5,-.3,-1.1,-.6,-1.7,-.9c-.7,-.2,-1.3,-.4,-1.9,-.5c-.7,-.2,-1.3,-.2,-2,-.2Zm5.6,16.3c-1.8,.7,-3.7,1.1,-5.6,1.1c-1.9,0,-3.8,-.4,-5.6,-1.1c-.2,-.1,-.3,-.2,-.3,-.4c0,-.1,.1,-5.7,4,-7.1c-.4,-.2,-.7,-.6,-1,-1c-.2,-.4,-.4,-.9,-.5,-1.4c0,-.5,0,-1,.1,-1.4c.2,-.5,.4,-.9,.7,-1.3c.4,-.4,.8,-.7,1.2,-.9c.4,-.2,.9,-.3,1.4,-.3c.5,0,1,.1,1.4,.3c.5,.2,.8,.5,1.2,.9c.3,.4,.5,.8,.7,1.3c.1,.4,.1,.9,.1,1.4c-.1,.5,-.3,1,-.5,1.4c-.3,.4,-.6,.8,-1,1c3.9,1.4,4,7,4,7c0,.3,-.1,.4,-.3,.5Z" class="g5"/>
<path d="M922.4,3273.2h.2c.2,0,.4,0,.6,-.1c.2,0,.4,-.1,.6,-.2c.2,-.2,.4,-.3,.5,-.4c.2,-.2,.3,-.4,.4,-.6c.1,-.2,.2,-.4,.2,-.6c.1,-.2,.1,-.4,.1,-.7c0,-.2,0,-.4,-.1,-.6c0,-.2,-.1,-.4,-.2,-.6c-.1,-.2,-.3,-.4,-.4,-.5c-.2,-.2,-.4,-.3,-.5,-.4c-.2,-.1,-.4,-.2,-.7,-.3c-.2,0,-.4,-.1,-.6,-.1c-.2,0,-.4,.1,-.6,.1c-.3,.1,-.5,.2,-.6,.3c-.2,.1,-.4,.2,-.6,.4c-.1,.1,-.3,.3,-.4,.5c-.1,.2,-.2,.4,-.2,.6c-.1,.2,-.1,.4,-.1,.6c0,.3,0,.5,.1,.7c0,.2,.1,.4,.2,.6c.1,.2,.2,.4,.4,.6c.1,.1,.3,.2,.5,.4c.2,.1,.4,.2,.6,.2c.2,.1,.4,.1,.6,.1Z" class="g5"/>
<path d="M923.6,3274.2v-.4l-.1,.4c-.7,-.1,-1.3,-.1,-2,0l-.2,-.4l.1,.4c-3.4,.7,-3.8,4.9,-3.9,6.1c1.6,.6,3.3,.9,5,.9c1.7,0,3.4,-.3,5,-.9c-.1,-1.2,-.5,-5.4,-3.9,-6.1Z" class="g5"/>
<path clip-path="url(#ck)" d="M252.2,3787.8v2.1c0,3.3,-2.7,6,-5.9,6H215.8c-3.3,0,-5.9,-2.7,-5.9,-6v-39.6c0,-3.3,2.6,-6,5.9,-6h30.5c3.2,0,5.9,2.7,5.9,6v5.2c0,.6,-.5,1.1,-1.1,1.1c-.7,0,-1.2,-.5,-1.2,-1.1v-5.2c0,-2.1,-1.6,-3.7,-3.6,-3.7H215.8c-2,0,-3.7,1.6,-3.7,3.7v39.6c0,2.1,1.7,3.7,3.7,3.7h30.5c2,0,3.6,-1.6,3.6,-3.7v-2.1c0,-.7,.5,-1.2,1.2,-1.2c.6,0,1.1,.5,1.1,1.2Z" class="g6"/>
<path d="M231,3751.6c3.6,0,6.5,2.9,6.5,6.5c0,1.4,-.5,2.7,-1.3,3.8c-.6,-.7,-1.3,-1.3,-2.2,-1.6c.5,-.7,.7,-1.4,.7,-2.2c0,-2.1,-1.6,-3.8,-3.7,-3.8c-2,0,-3.7,1.7,-3.7,3.8c0,.8,.3,1.5,.7,2.2c-.8,.3,-1.5,.9,-2.2,1.6c-.7,-1.1,-1.2,-2.4,-1.2,-3.8c0,-3.6,2.9,-6.5,6.4,-6.5Zm0,8c-.8,0,-1.4,-.7,-1.4,-1.5c0,-.9,.6,-1.5,1.4,-1.5c.8,0,1.5,.6,1.5,1.5c0,.8,-.7,1.5,-1.5,1.5Zm-3.6,3.8c1,-1,2.3,-1.6,3.6,-1.6c1.4,0,2.7,.6,3.6,1.6c-1,.7,-2.2,1.2,-3.6,1.2c-1.3,0,-2.5,-.5,-3.6,-1.2Zm-2.3,1c0,0,.1,.1,.2,.2c1.5,1.3,3.5,2.2,5.7,2.2c2.2,0,4.3,-.9,5.8,-2.2c.1,-.1,.1,-.2,.2,-.2c1.6,-1.6,2.7,-3.9,2.7,-6.3c0,-4.8,-3.9,-8.8,-8.7,-8.8c-4.7,0,-8.6,4,-8.6,8.8c0,2.4,1,4.7,2.7,6.3Z" class="g6"/>
<path d="M240.3,3785H224.5c-.7,0,-1.2,.5,-1.2,1.1c0,.7,.5,1.2,1.2,1.2h15.8c.6,0,1.1,-.5,1.1,-1.2c0,-.6,-.5,-1.1,-1.1,-1.1Zm-20.7,0h-1.4c-.6,0,-1.1,.5,-1.1,1.1c0,.7,.5,1.2,1.1,1.2h1.4c.6,0,1.1,-.5,1.1,-1.2c0,-.6,-.5,-1.1,-1.1,-1.1Zm20.7,-6.2H224.5c-.7,0,-1.2,.5,-1.2,1.1c0,.7,.5,1.2,1.2,1.2h15.8c.6,0,1.1,-.5,1.1,-1.2c0,-.6,-.5,-1.1,-1.1,-1.1Zm-20.7,0h-1.4c-.6,0,-1.1,.5,-1.1,1.1c0,.7,.5,1.2,1.1,1.2h1.4c.6,0,1.1,-.5,1.1,-1.2c0,-.6,-.5,-1.1,-1.1,-1.1Zm20.7,-6.2H224.5c-.7,0,-1.2,.5,-1.2,1.2c0,.6,.5,1.1,1.2,1.1h15.8c.6,0,1.1,-.5,1.1,-1.1c0,-.7,-.5,-1.2,-1.1,-1.2Zm-19.6,1.2c0,.6,-.5,1.1,-1.1,1.1h-1.4c-.6,0,-1.1,-.5,-1.1,-1.1c0,-.7,.5,-1.2,1.1,-1.2h1.4c.6,0,1.1,.5,1.1,1.2Z" class="g6"/>
<path clip-path="url(#cl)" d="M259,3785.9l-2.5,1.2c-.2,0,-.4,0,-.4,0c-.1,-.1,-.3,-.1,-.4,-.3l-1,-2.2l3.5,-1.6l1,2.1c.2,.3,.1,.6,-.2,.8Zm-11,-25l9.3,20l-3.5,1.7l-9.3,-20l3.5,-1.7Zm-1.5,-1.7l-1.2,.5l-1.2,.6l.1,-3l2.3,1.9Zm14.8,25L249.5,3759c0,-.1,0,-.2,-.1,-.2c0,-.1,-.1,-.2,-.2,-.2l-5.4,-4.5c-.4,-.3,-.8,-.4,-1.2,-.2c-.4,.2,-.6,.6,-.6,1l-.1,7.1c0,0,0,.1,0,.1c0,0,0,.1,0,.2v.1c.1,0,.1,.1,.1,.1l10.3,22.1l1.4,3.1c.3,.7,.9,1.2,1.6,1.5c.3,.1,.6,.2,.9,.2c.5,0,.9,-.1,1.2,-.3l2.5,-1.2c1.4,-.6,2,-2.3,1.4,-3.7Z" class="g6"/>
<path d="M669.7,3813.4h-40c-3.4,0,-6.1,-2.7,-6.1,-6.1v-25.6c0,-3.4,2.7,-6.1,6.1,-6.1h11.7c.5,0,.9,.3,.9,.8c0,.5,-.4,.9,-.9,.9H629.7c-2.5,0,-4.4,1.9,-4.4,4.4v25.6c0,2.4,1.9,4.4,4.4,4.4h40c2.5,0,4.5,-2,4.5,-4.4v-25.6c0,-2.5,-2,-4.4,-4.5,-4.4H658.1c-.5,0,-.9,-.4,-.9,-.9c0,-.5,.4,-.8,.9,-.8h11.6c3.4,0,6.2,2.7,6.2,6.1v25.6c0,3.4,-2.8,6.1,-6.2,6.1Z" class="g6"/>
<path d="M649.7,3804.5c-.2,0,-.5,-.1,-.6,-.3l-23.5,-25.9c-.4,-.3,-.3,-.9,0,-1.2c.4,-.3,.9,-.3,1.2,.1l22.9,25.2l22.9,-25.2c.3,-.4,.9,-.4,1.2,-.1c.3,.3,.4,.9,.1,1.2l-23.6,25.9c-.1,.2,-.4,.3,-.6,.3Z" class="g6"/>
<path d="M626.7,3812.5c-.2,0,-.4,-.1,-.6,-.2c-.3,-.4,-.3,-.9,0,-1.2l16.2,-15.5c.4,-.4,.9,-.3,1.2,0c.3,.3,.3,.9,0,1.2l-16.2,15.5c-.1,.1,-.4,.2,-.6,.2Z" class="g6"/>
<path d="M673.4,3812c-.2,0,-.4,-.1,-.6,-.3l-16.4,-15.5c-.3,-.3,-.3,-.8,0,-1.2c.3,-.3,.9,-.3,1.2,0l16.4,15.5c.3,.3,.3,.9,0,1.2c-.2,.2,-.4,.3,-.6,.3Z" class="g6"/>
<path clip-path="url(#cm)" d="M653.3,3775.6h-1.6v1.3c-.4,-1,-1.4,-1.6,-2.8,-1.6c-2.3,0,-3.8,1.8,-3.8,4.6v1c.1,3,1.5,4.6,3.9,4.6c1.5,0,2.6,-.7,3.2,-1.9c.4,1.1,1.3,1.8,2.6,1.8c2.1,0,3.9,-2,3.8,-6.1c0,-5.5,-3.5,-9.4,-8.8,-9.4c-6,0,-9.7,4.3,-9.6,10.5c0,6.8,3.9,10.5,9.8,10.5c2.5,0,4.6,-.5,6.4,-1.5v-1.8c-1.9,1.1,-4.1,1.7,-6.4,1.7c-4.6,0,-8,-2.9,-8,-8.9c-.1,-5.3,2.7,-8.8,7.8,-8.8c4.5,0,7,3.2,7.1,7.7c0,3.2,-1,4.3,-2.1,4.3c-.9,0,-1.5,-.5,-1.5,-2v-6Zm-1.8,5.2c0,2,-.8,3.1,-2.2,3.1c-1.5,0,-2.3,-1.1,-2.3,-3.1v-.8c-.1,-2,.8,-3,2.2,-3c1.5,0,2.3,1.1,2.3,3.1v.7Z" class="g6"/>
<path clip-path="url(#cn)" d="M1121.2,3769.1c-1.1,-1.3,-6.3,-6.5,-6.7,-7c-.3,-.2,-1.4,-1.4,-2.9,-1.4c-.7,0,-1.4,.2,-2,.7c-1.1,.8,-2.9,2.5,-3.9,3.4c-1.3,-.7,-4,-2.3,-5.7,-3.7c-2.6,-2.2,-4.9,-5,-7,-8.5l-.6,-1.2c1.1,-1.2,2.7,-2.9,3.5,-4.1c1.5,-2,.2,-4.1,-.8,-4.9c-.5,-.5,-5.6,-5.7,-6.8,-6.8c-.7,-.6,-1.6,-1,-2.5,-1c-.7,0,-1.2,.3,-1.3,.3l-.5,.3c-2.6,1.7,-5.6,3.6,-5.8,11.3c0,7.7,6,15.2,10.9,20.1c5.3,5.8,13.2,12.7,21.3,12.7h.1c7.5,-.1,9.4,-3.2,11.1,-5.8l.2,-.3v-.2c.4,-.8,.6,-2.5,-.6,-3.9Zm-1.3,3l-.1,.2c-1.6,2.6,-3,4.8,-9.4,4.9v1.1v-1.1c-7.8,0,-15.7,-7.5,-19.8,-12.1c-4.7,-4.6,-10.3,-11.7,-10.3,-18.6c.1,-6.5,2.3,-7.9,4.8,-9.5l.2,-.2c.1,0,.3,0,.5,0c.4,0,.8,.1,1.1,.4c1.2,1.1,6.7,6.7,6.8,6.7l.1,.1c.1,.1,1.2,1,.4,2.1c-.6,.9,-2,2.5,-3.8,4.4l-.5,.6l1.3,2.5c2.2,3.8,4.7,6.8,7.4,9.1c2.5,2.1,6.6,4.3,6.7,4.4l.7,.3l.5,-.5c.5,-.5,3,-2.8,4.4,-3.8c.2,-.2,.4,-.3,.7,-.3c.6,0,1.1,.5,1.3,.7l.1,.1c0,.1,5.5,5.7,6.6,6.9c.6,.7,.4,1.4,.3,1.6Z" class="g6"/>
<path clip-path="url(#co)" d="M649.9,3686.5c6.6,0,12,-5.4,12,-12c0,-6.5,-5.4,-11.9,-12,-11.9c-6.5,0,-11.9,5.4,-11.9,11.9c0,6.6,5.4,12,11.9,12Zm0,-22c5.6,0,10.1,4.5,10.1,10c0,5.6,-4.5,10.1,-10.1,10.1c-5.5,0,-10,-4.5,-10,-10.1c0,-5.5,4.5,-10,10,-10Z" class="g6"/>
<path d="M662,3688c-.4,-.2,-.8,-.2,-1.1,.1c-3.1,2.5,-6.9,3.9,-11,3.9c-4,0,-7.8,-1.4,-10.9,-3.9c-.3,-.3,-.7,-.3,-1.1,-.1c-6.8,4.2,-10.9,11.5,-10.9,19.6c0,.5,.4,.9,.9,.9H672c.5,0,.9,-.4,.9,-.9c0,-8.1,-4.1,-15.4,-10.9,-19.6Zm-33.1,18.6c.3,-6.8,3.8,-12.9,9.5,-16.7c3.3,2.5,7.4,3.9,11.5,3.9c4.2,0,8.3,-1.4,11.6,-3.9c5.7,3.8,9.2,9.9,9.5,16.7H628.9Z" class="g6"/>
<path clip-path="url(#cp)" d="M-4.1,1238.7H1303.6v396.5H-4.1V1238.7Z" class="g2"/>
<path clip-path="url(#cq)" d="M-8.4,757.1H1300.1V989.9H-8.4V757.1Z" class="g2"/>
<image clip-path="url(#cr)" preserveAspectRatio="none" x="860" y="989" width="444" height="249" xlink:href="img/5.jpg"/>
<image clip-path="url(#cs)" preserveAspectRatio="none" x="286" y="989" width="443" height="250" xlink:href="img/6.jpg"/>
<image clip-path="url(#ct)" preserveAspectRatio="none" x="-50" y="989" width="553" height="250" xlink:href="img/7.jpg"/>
<image clip-path="url(#cu)" preserveAspectRatio="none" x="536" y="989" width="525" height="249" xlink:href="img/8.jpg"/>
<path d="M771.1,1585.3H489.8c-7,0,-12.7,-5.7,-12.7,-12.7v-43.7c0,-7,5.7,-12.7,12.7,-12.7H771.1c7,0,12.6,5.7,12.6,12.7v43.7c0,7,-5.6,12.7,-12.6,12.7Z" class="g7"/>
<path d="M1175.6,2869.7H894.3c-6.9,0,-12.6,-5.7,-12.6,-12.7v-43.7c0,-7,5.7,-12.7,12.6,-12.7h281.3c7,0,12.7,5.7,12.7,12.7V2857c0,7,-5.7,12.7,-12.7,12.7Z" class="g7"/>
</svg>