<?xml version="1.0" standalone="no"?>
<!DOCTYPE svg PUBLIC "-//W3C//DTD SVG 20010904//EN"
 "http://www.w3.org/TR/2001/REC-SVG-20010904/DTD/svg10.dtd">
<svg version="1.0" xmlns="http://www.w3.org/2000/svg"
 width="273.000000pt" height="72.000000pt" viewBox="0 0 273.000000 72.000000"
 preserveAspectRatio="xMidYMid meet">
<metadata>
Created by potrace 1.13, written by Peter Selinger 2001-2015
</metadata>
<g transform="translate(0.000000,72.000000) scale(0.100000,-0.100000)"
fill="#000000" stroke="none">
<path d="M427 663 c-4 -3 -7 -12 -7 -20 0 -15 26 -18 34 -4 7 11 -18 33 -27
24z"/>
<path d="M409 611 c9 -6 12 -18 8 -37 -6 -26 -5 -27 5 -7 12 25 5 53 -14 53
-10 0 -10 -2 1 -9z"/>
<path d="M458 613 c6 -2 18 -2 25 0 6 3 1 5 -13 5 -14 0 -19 -2 -12 -5z"/>
<path d="M450 584 c0 -6 7 -19 16 -30 14 -18 14 -18 3 6 -14 31 -19 36 -19 24z"/>
<path d="M935 515 c3 -22 5 -57 5 -77 0 -21 4 -38 9 -38 9 0 91 132 91 147 0
4 -19 -23 -42 -62 l-43 -70 -7 60 c-4 33 -10 64 -13 70 -3 5 -3 -8 0 -30z"/>
<path d="M1211 534 c-1 -28 -11 -36 -28 -23 -20 17 -60 -14 -68 -52 -9 -40 13
-67 41 -50 18 10 17 10 -4 11 -30 0 -38 24 -18 55 16 24 50 34 60 16 3 -4 1
-23 -4 -42 -10 -33 1 -62 14 -40 4 6 3 11 -2 11 -6 0 -4 23 4 56 9 31 13 61
10 67 -2 7 -5 3 -5 -9z"/>
<path d="M1521 534 c0 -11 3 -14 6 -6 3 7 2 16 -1 19 -3 4 -6 -2 -5 -13z"/>
<path d="M1711 534 c0 -11 3 -14 6 -6 3 7 2 16 -1 19 -3 4 -6 -2 -5 -13z"/>
<path d="M670 530 c0 -5 5 -10 11 -10 5 0 7 5 4 10 -3 6 -8 10 -11 10 -2 0 -4
-4 -4 -10z"/>
<path d="M182 511 c-11 -7 -11 -9 2 -14 10 -4 16 -1 16 8 0 17 -1 17 -18 6z"/>
<path d="M825 507 c-16 -13 -15 -14 13 -9 25 3 32 1 32 -13 0 -14 -7 -16 -35
-13 -31 3 -36 1 -42 -20 -8 -33 17 -57 48 -46 24 8 24 8 -5 13 -44 9 -44 29 1
33 31 2 39 7 41 27 2 13 -2 28 -10 32 -18 12 -21 11 -43 -4z"/>
<path d="M1061 476 c-14 -56 -14 -79 -1 -71 6 4 8 10 5 15 -3 5 -1 28 5 51 6
22 9 43 7 45 -2 3 -10 -15 -16 -40z"/>
<path d="M1262 490 c0 -19 2 -27 5 -17 2 9 2 25 0 35 -3 9 -5 1 -5 -18z"/>
<path d="M1390 500 c-8 -8 -11 -12 -6 -7 6 4 20 7 33 7 17 0 23 -6 23 -22 0
-26 5 -21 13 12 5 22 3 25 -20 25 -15 0 -34 -7 -43 -15z"/>
<path d="M1586 499 c-31 -24 -37 -83 -10 -93 16 -6 64 17 64 31 0 4 -5 2 -12
-5 -7 -7 -22 -12 -35 -12 -19 0 -23 5 -23 28 0 34 16 52 47 52 18 0 23 -6 24
-27 2 -25 2 -25 6 -5 4 22 -11 52 -27 52 -4 0 -19 -9 -34 -21z"/>
<path d="M1770 512 c0 -19 -31 -42 -56 -42 -15 0 -24 -6 -24 -15 0 -13 4 -14
20 -5 16 9 21 8 25 -5 3 -8 7 -22 10 -31 3 -9 8 -15 10 -12 3 3 1 16 -3 29 -7
18 -4 30 11 51 11 15 18 31 14 35 -4 3 -7 1 -7 -5z"/>
<path d="M1833 505 c-47 -33 -34 -124 13 -96 18 10 17 10 -4 11 -30 0 -38 24
-18 55 18 27 45 32 64 13 9 -9 12 -8 12 5 0 9 -4 17 -9 17 -5 0 -15 2 -23 5
-7 3 -23 -2 -35 -10z"/>
<path d="M1511 494 c0 -11 3 -14 6 -6 3 7 2 16 -1 19 -3 4 -6 -2 -5 -13z"/>
<path d="M1701 494 c0 -11 3 -14 6 -6 3 7 2 16 -1 19 -3 4 -6 -2 -5 -13z"/>
<path d="M268 483 c6 -2 18 -2 25 0 6 3 1 5 -13 5 -14 0 -19 -2 -12 -5z"/>
<path d="M1310 470 c-6 -11 -8 -20 -6 -20 3 0 10 9 16 20 6 11 8 20 6 20 -3 0
-10 -9 -16 -20z"/>
<path d="M1361 444 c-1 -34 16 -48 40 -33 11 7 9 9 -8 9 -16 0 -23 7 -26 28
-4 26 -4 26 -6 -4z"/>
<path d="M1501 454 c0 -11 3 -14 6 -6 3 7 2 16 -1 19 -3 4 -6 -2 -5 -13z"/>
<path d="M1881 454 c0 -11 3 -14 6 -6 3 7 2 16 -1 19 -3 4 -6 -2 -5 -13z"/>
<path d="M201 444 c0 -11 3 -14 6 -6 3 7 2 16 -1 19 -3 4 -6 -2 -5 -13z"/>
<path d="M471 437 c-13 -21 -12 -21 5 -5 10 10 16 20 13 22 -3 3 -11 -5 -18
-17z"/>
<path d="M1426 435 c-3 -10 -3 -22 3 -28 12 -12 20 4 11 27 -6 19 -7 19 -14 1z"/>
<path d="M1270 418 c0 -10 2 -18 5 -18 2 0 9 8 14 18 8 14 6 19 -5 19 -7 0
-14 -9 -14 -19z"/>
<path d="M1490 420 c0 -13 18 -22 24 -11 3 5 -1 11 -9 15 -8 3 -15 1 -15 -4z"/>
<path d="M1681 414 c0 -11 3 -14 6 -6 3 7 2 16 -1 19 -3 4 -6 -2 -5 -13z"/>
<path d="M1870 420 c0 -13 18 -22 24 -11 3 5 -1 11 -9 15 -8 3 -15 1 -15 -4z"/>
<path d="M395 409 c-4 -6 -5 -12 -2 -15 2 -3 7 2 10 11 7 17 1 20 -8 4z"/>
<path d="M1240 381 c-14 -4 -20 -10 -14 -14 6 -3 20 0 30 8 21 16 20 16 -16 6z"/>
<path d="M599 363 c11 -22 48 -53 63 -53 4 0 12 9 18 20 7 14 7 20 0 20 -5 0
-10 -7 -10 -15 0 -22 -10 -19 -48 18 -26 24 -32 27 -23 10z"/>
<path d="M271 309 c-25 -34 -42 -34 -52 2 -6 22 -7 22 -8 3 -1 -12 6 -27 14
-34 13 -10 19 -9 36 6 20 18 44 54 36 54 -2 0 -13 -14 -26 -31z"/>
<path d="M580 300 c-20 -7 -16 -8 23 -9 50 -1 57 -9 31 -35 -8 -9 -12 -16 -7
-16 15 0 33 23 33 41 0 9 -10 19 -22 23 -26 7 -25 7 -58 -4z"/>
<path d="M680 290 c0 -15 5 -20 18 -18 9 2 17 10 17 18 0 8 -8 16 -17 18 -13
2 -18 -3 -18 -18z"/>
<path d="M1151 294 c-1 -7 -10 -14 -22 -17 -16 -4 -20 -12 -17 -33 2 -15 9
-29 16 -30 7 -1 8 0 2 3 -16 8 -12 53 5 53 10 0 15 -10 15 -30 0 -16 4 -30 8
-30 4 0 6 17 4 38 -4 39 -10 64 -11 46z"/>
<path d="M1882 255 c1 -34 2 -40 5 -17 5 37 23 44 23 8 0 -14 4 -27 8 -30 4
-2 6 11 4 30 -2 19 -10 34 -17 34 -7 0 -16 6 -18 13 -3 6 -5 -10 -5 -38z"/>
<path d="M877 282 c6 -4 13 -23 16 -42 l4 -35 1 37 c2 25 7 38 20 41 9 3 1 5
-18 6 -19 0 -30 -3 -23 -7z"/>
<path d="M1040 250 c0 -37 2 -40 28 -39 23 2 24 2 5 6 -27 5 -31 30 -5 36 16
4 16 5 0 6 -26 2 -22 19 5 24 19 4 18 4 -5 6 -26 1 -28 -2 -28 -39z"/>
<path d="M1576 274 c-4 -9 -4 -19 -1 -22 3 -3 5 0 5 7 0 7 5 9 10 6 17 -10 11
-25 -10 -25 -11 0 -20 -4 -20 -9 0 -5 9 -7 21 -4 12 4 25 0 31 -8 8 -11 8 -10
4 4 -3 11 -9 30 -12 43 -7 28 -19 31 -28 8z"/>
<path d="M2176 277 c3 -10 9 -15 12 -12 3 3 0 11 -7 18 -10 9 -11 8 -5 -6z"/>
<path d="M2357 284 c-9 -9 9 -68 21 -70 7 -1 8 0 2 3 -14 7 -13 50 2 55 8 3 6
6 -4 10 -9 4 -18 5 -21 2z"/>
<path d="M2410 250 c0 -22 3 -40 8 -40 4 0 6 18 4 40 -2 22 -6 40 -8 40 -2 0
-4 -18 -4 -40z"/>
<path d="M944 266 c-10 -26 0 -51 21 -51 16 0 20 7 20 30 0 33 -30 49 -41 21z
m36 -21 c0 -16 -6 -25 -15 -25 -9 0 -15 9 -15 25 0 16 6 25 15 25 9 0 15 -9
15 -25z"/>
<path d="M1183 248 c2 -27 6 -33 27 -35 24 -1 25 1 21 35 -5 37 -5 37 -10 8
-8 -40 -28 -44 -35 -7 l-6 31 3 -32z"/>
<path d="M1260 265 c-15 -18 -4 -55 18 -55 13 0 13 2 -3 14 -22 16 -13 51 11
42 8 -3 12 -2 9 4 -9 14 -21 12 -35 -5z"/>
<path d="M1319 264 c-16 -20 -1 -49 27 -50 16 -1 19 4 16 32 -4 37 -22 44 -43
18z m31 -19 c0 -26 -14 -33 -25 -15 -9 14 1 40 15 40 5 0 10 -11 10 -25z"/>
<path d="M1389 248 c4 -17 12 -33 19 -34 7 -1 8 0 2 3 -14 7 -13 50 3 56 6 3
2 6 -9 6 -19 1 -21 -3 -15 -31z"/>
<path d="M1444 266 c-9 -23 0 -51 16 -52 9 0 10 1 3 3 -20 7 -15 23 7 23 11 0
20 4 20 9 0 5 -9 7 -20 4 -11 -3 -20 -1 -20 5 0 6 8 13 18 15 16 4 16 5 -1 6
-10 0 -20 -5 -23 -13z"/>
<path d="M1642 243 c1 -37 1 -37 5 -5 5 37 23 44 23 8 0 -14 4 -27 8 -30 4 -2
6 11 4 30 -3 25 -9 34 -23 34 -16 0 -19 -7 -17 -37z"/>
<path d="M1707 259 c4 -13 8 -18 11 -10 2 7 -1 18 -6 23 -8 8 -9 4 -5 -13z"/>
<path d="M1769 248 c6 -28 11 -33 38 -35 41 -2 60 19 45 50 -10 21 -10 20 -9
-7 3 -41 -21 -45 -26 -4 l-4 33 -1 -32 c-3 -44 -32 -46 -32 -3 0 17 -4 30 -9
30 -5 0 -5 -15 -2 -32z"/>
<path d="M1950 264 c-15 -17 -4 -45 21 -52 8 -2 5 3 -6 12 -20 15 -20 15 3 16
16 0 22 5 20 17 -4 23 -23 27 -38 7z m30 -4 c0 -5 -7 -10 -16 -10 -8 0 -12 5
-9 10 3 6 10 10 16 10 5 0 9 -4 9 -10z"/>
<path d="M2011 241 c1 -28 3 -30 6 -11 3 14 9 30 14 36 5 7 3 11 -6 11 -11 0
-15 -11 -14 -36z"/>
<path d="M2064 266 c-9 -23 0 -51 16 -52 9 0 10 1 3 3 -20 7 -15 23 7 23 11 0
20 4 20 9 0 5 -9 7 -20 4 -11 -3 -20 -1 -20 5 0 6 8 13 18 15 16 4 16 5 -1 6
-10 0 -20 -5 -23 -13z"/>
<path d="M2221 243 c1 -35 2 -36 8 -9 8 38 31 47 31 12 0 -13 4 -27 9 -30 4
-3 5 9 2 27 -5 23 -13 33 -29 35 -20 3 -22 -1 -21 -35z"/>
<path d="M2295 267 c16 -59 17 -70 4 -79 -11 -8 -11 -9 0 -6 12 3 41 71 40 93
0 6 -5 -3 -11 -19 l-11 -29 -14 29 c-7 16 -11 21 -8 11z"/>
<path d="M2442 242 l1 -37 4 33 c3 18 10 32 18 32 8 0 15 -14 18 -32 l4 -33 1
33 c2 37 22 44 22 8 0 -14 4 -27 8 -30 4 -2 6 10 4 29 -4 31 -6 33 -43 33 -39
1 -39 0 -37 -36z"/>
<path d="M2554 266 c-9 -23 0 -51 16 -52 9 0 10 1 3 3 -19 6 -16 21 5 26 16 4
16 5 0 6 -10 0 -18 6 -18 12 0 6 7 8 16 5 8 -3 12 -2 9 4 -9 15 -25 12 -31 -4z"/>
<path d="M283 263 c9 -2 25 -2 35 0 9 3 1 5 -18 5 -19 0 -27 -2 -17 -5z"/>
<path d="M1736 253 c-3 -10 -9 -24 -12 -30 -3 -7 -1 -13 4 -13 5 0 13 12 16
26 8 30 2 44 -8 17z"/>
<path d="M190 246 c0 -8 4 -17 8 -20 13 -8 35 11 28 23 -10 16 -36 14 -36 -3z"/>
<path d="M244 249 c-3 -6 2 -18 12 -27 17 -16 17 -16 5 0 -7 9 -10 22 -6 28 3
5 4 10 1 10 -3 0 -8 -5 -12 -11z"/>
<path d="M1508 243 c6 -2 18 -2 25 0 6 3 1 5 -13 5 -14 0 -19 -2 -12 -5z"/>
<path d="M2173 243 c-12 -2 -24 -12 -28 -21 -5 -14 -4 -15 6 -4 7 6 21 12 31
12 10 0 18 5 18 10 0 6 -1 9 -2 9 -2 -1 -13 -4 -25 -6z"/>
<path d="M1710 190 c-9 -6 -10 -10 -3 -10 6 0 15 5 18 10 8 12 4 12 -15 0z"/>
</g>
</svg>
